<svg version="1.2" xmlns="http://www.w3.org/2000/svg" viewBox="0 0 197 141" width="600" height="429"><style>.a{fill:#f1f2ee}.b{fill:#e5edeb}.c{fill:#d6e6e7}.d{fill:#cde2e4}.e{fill:#aed1cc}.f{fill:#98ccbc}.g{fill:#9ca7dd}.h{fill:#73c0ae}.i{fill:#62a8a4}.j{fill:#528ec2}.k{fill:#4e4fdc}.l{fill:#6c7377}.m{fill:#345d85}</style><path class="a" d="m7.4 140.3c-2.7-1.1-4.7-2.9-6.3-5.8-0.8-1.5-0.9-1.7-1-4.7-0.1-2.9-0.1-3.3 0.4-4.1 0.3-0.5 0.6-1.1 0.6-1.4 0-0.2 0.2-0.5 0.5-0.6 0.7-0.1 0.7-0.6 0-0.7q-0.5-0.2-0.3-0.6c0.1-0.5 1.1-0.6 1.1-0.2 0 0.6 0.8 0.3 1.1-0.4 0.5-1.4 0.9-2.2 1.1-2.2 0.3 0 2.1-2.4 1.9-2.6-0.1-0.1-0.2 0-0.4 0.2-0.2 0.3-0.3 0.3-0.7 0.1-0.6-0.4-1.1 0-1.1 0.9 0 0.3-0.2 0.6-0.3 0.6-0.4 0-2.3 2-2.5 2.6-0.2 0.6-0.7 0.7-1.1 0.3-0.5-0.5-0.5-15.5-0.1-15.8 0.6-0.3 1.7-0.3 2.1 0.1 0.4 0.5 0.9 0.1 0.7-0.5-0.2-0.4-0.4-0.5-1.3-0.4l-1 0.2 0.4-0.7c0.4-0.6 0.4-0.7-0.4-1.4l-0.8-0.8 0.1-6.7c0.1-6.2 0.1-6.8 0.7-7.9l0.6-1.3-0.6-0.5c-0.6-0.4-0.6-0.7-0.6-2.7 0.1-1.2 0.1-2.7 0.1-3.2-0.1-4.4-0.1-23.5 0-25.1 0-1.1 0-3.5-0.1-5.4-0.2-4.3-0.1-4.6 1.8-4.1 0.8 0.1 1.4 0.2 1.4 0.1 0.3-0.2-0.6-1.7-1-1.7-0.5 0-1.5-1-1.2-1.2 0.1-0.1-0.1-0.5-0.5-1l-0.7-0.7 0.1-10.1c0.1-5.6 0.2-10.5 0.2-11.1 0-0.5-0.1-3.3-0.1-6.2v-5.3l0.8-1.7c0.8-1.8 2.1-3.4 2.5-3.4 0.2 0 0.8-0.4 1.5-1 0.6-0.5 1.2-0.9 1.3-0.8 0.2 0 0.5-0.2 0.8-0.6l0.6-0.7h14.3c11.3-0.1 14.5-0.1 15.1 0.2 1 0.4 1 0.8 0.1 1.5-0.5 0.4-0.7 0.6-0.5 0.9 0.1 0.2 0.2 0.4 0.2 0.5 0.1 1 1.2-1 1.2-2 0-0.2 0.3-0.5 0.5-0.8 0.5-0.4 2-0.4 16.8-0.4 17.5 0 17.2 0 16.7 1.3-0.1 0.4 0 0.5 0.3 0.4 0.2-0.1 0.5 0.1 0.7 0.4 0.3 0.5 0.4 0.4 0.7-0.7l0.5-1.3 24 0.1c13.3 0 24.4 0 24.8 0 0.3 0 2.8 0 5.4-0.1 5.5-0.2 6.4 0 7.3 1.4 0.5 0.9 0.5 0.9 1 0.4 0.2-0.2 0.4-0.7 0.3-0.9 0-0.3 0.1-0.6 0.3-0.8 0.2-0.1 5-0.2 10.6-0.2 9.2 0 10.3 0 10.4 0.4 0.1 0.3 0 0.6-0.2 0.7-1.1 0.6-1.1 0.7-0.8 1q0.4 0.2 0.2 0.9c-0.1 0.4-0.1 0.7 0.1 0.7 0.2 0 0.3-0.2 0.3-0.4 0-0.5 0.8-0.5 1.3-0.1 0.2 0.3 0.3 0.2 0.3-0.4 0-0.7 0.6-1 0.8-0.4 0.1 0.1 1.2-0.3 2.6-1.1l2.4-1.3h5.6c3.6 0 5.7 0.1 6.2 0.3 0.5 0.2 0.7 0.2 1 0 0.2-0.2 1.7-0.3 4.7-0.3 4.6 0 6.1 0.3 8.1 1.4 2.2 1.2 4.6 4.1 4.2 5.1-0.1 0.3 0 0.7 0.3 1 0.4 0.4 0.5 1.2 0.6 5.4 0.1 3.7 0.1 5.2-0.2 5.9-0.4 1-0.4 2.2-0.1 2.5 0.2 0.2 0.4 4.5 0.5 12.6l0.1 12.3-0.5 0.4-0.6 0.4 0.5 1.4c0.5 1.2 0.6 1.7 0.4 3.2-0.2 1.9-0.4 2.3-1.4 2.7-0.5 0.2-0.6 0.3-0.5 0.8 0.1 0.3 0.2 0.8 0.2 1.1 0 0.3 0.3 0.6 0.8 0.7 0.5 0.2 0.9 0.5 0.9 0.9 0.2 0.4 0.1 8-0.1 18.9 0 0.4 0.1 3.9 0.1 7.8 0 4-0.1 7.3-0.2 7.5-0.4 0.6-0.8 0.4-1.5-0.7-0.7-1.2-0.8-1.2-1.3-0.7-0.3 0.3-0.4 0.3-1 0-0.8-0.6-0.8-0.9 0.1-1 1-0.1 1-0.8 0-0.8q-1.5-0.1-1.5 0.4c0 0.2 0.4 1.1 1 2 0.7 1.3 1 1.6 1.2 1.4 0.5-0.4 1.5 0 1.5 0.6 0 0.2-0.2 0.5-0.4 0.5-0.6 0-0.5 0.6 0.4 2.1 0.7 1 0.8 1.5 0.7 2.2-0.1 0.7 0 1.1 0.5 1.7l0.5 0.7v14.7c0 8.1-0.1 15.5-0.1 16.4-0.3 3.3-2.7 6.7-6.1 8.5-1.1 0.6-1.5 0.6-6 0.7-4.7 0.1-4.9 0.1-5.7-0.5-0.5-0.3-0.9-0.7-0.9-0.8-0.2-0.4-0.8-0.3-1.1 0.2-0.2 0.3-0.3 0.3-0.6-0.4-0.2-0.4-0.5-0.9-0.6-1.1-0.2-0.2-0.3-0.5-0.3-0.7 0-0.3-0.3-0.4-0.7-0.5-0.8-0.1-1 0.2-0.5 0.6 0.2 0 0.3 0.5 0.2 1 0 0.6 0.1 1.1 0.3 1.2 0.3 0.2 0.3 0.3 0 0.6-0.3 0.4-1.2 0.5-8.1 0.3-9.6-0.1-8.2-0.1-17 0.1-7 0.1-7.3 0.1-8.2-0.5-0.7-0.3-1.1-0.4-1.2-0.2-0.2 0.3-2.2 0.3-2.2 0 0-0.1 0.1-0.3 0.3-0.5 0.3-0.4-0.7-1-1.3-0.7-0.3 0.1-0.3 0.2-0.1 0.7 0.6 1.1 0.2 1.3-1.9 1.2-1.1-0.1-2.1-0.2-2.3-0.2-0.4 0.1-15.5 0.1-16.6 0.1-0.4 0-5 0-10.3 0.1-7.7 0.1-9.5 0-9.9-0.3-0.5-0.4-3.3-0.4-5 0-0.9 0.2-7.2 0.3-20.6 0.3-18 0-19.4 0-20.7-0.4-1.2-0.5-1.3-0.5-2.3 0-1 0.5-1.6 0.5-10.4 0.4-5.2-0.1-9.6-0.2-9.8-0.2-0.2 0.1-4.3 0.1-9.1 0.1-8 0.1-8.9 0.1-10-0.3zm136.7-72.4q1.8-0.8 1.6-3.3c-0.3-1.8 0.2-1.9 2-0.4 0.8 0.6 2 1.6 2.8 2.1l1.3 0.9 0.1-5.6c0-3.1 0-5.6-0.1-5.7-0.2-0.2-2.6 1.5-3.9 2.8-1.6 1.6-2.2 1.4-2.3-0.6-0.2-2.2-0.8-2.6-3.4-2.8-1.1-0.1-3.9-0.1-6.1 0-3.4 0.1-4.1 0.2-4.5 0.6-0.4 0.4-0.4 1.1-0.4 5.9 0 5.4 0 5.5 0.6 6 0.5 0.4 1.1 0.5 6 0.5 4.1 0 5.6-0.1 6.3-0.4z"/><path class="b" d="m10.8 140.5c-2.2-0.1-3.3-0.3-4.2-0.8-1.6-0.7-4.1-3.1-5.2-5.2-0.9-1.5-1-1.7-1-4.7l-0.1-3.2 1.1-1.5c0.6-0.9 1.2-1.5 1.4-1.5 0.2 0 1.9 0.9 3.8 2 1.8 1.2 4.6 2.8 6 3.7 1.5 0.9 4.6 2.8 6.9 4.2 2.3 1.4 4.7 2.9 5.3 3.2 1.1 0.6 2.2 1.6 2.2 1.9 0 0.1-0.3 0.6-0.8 1.1l-0.8 0.9h-5.9c-3.2 0-7.1 0-8.7-0.1zm38.8-0.6c-0.6-0.5-2.8-2.3-4.8-4-2-1.8-4.6-3.9-5.6-4.8-1-0.8-1.9-1.7-1.9-1.8 0-0.2 1.6-2.4 3.5-4.9 2.6-3.5 3.4-4.7 3.1-4.8-0.7-0.5-1.2-0.2-2.5 1.6-1.8 2.7-4.8 6.4-5.3 6.7-0.2 0.1-0.5 0.1-0.8-0.2-0.2-0.1-1.7-1.4-3.4-2.8-1.6-1.3-4-3.3-5.3-4.4-1.4-1.1-2.5-2.1-2.5-2.3 0-0.2 2.3-3 5.1-6.3 2.8-3.2 5.3-6.2 5.6-6.5 0.6-0.8 1-0.8 2 0.2l0.7 0.8 0.4-0.8c0.3-0.7 0.3-0.9-0.1-1.2-0.2-0.2-1.6-1.4-3.2-2.8-1.5-1.3-3.2-2.9-3.7-3.5-0.4-0.6-1.7-2-2.7-3-1.1-1-2-2-2-2.2 0-0.2 1.2-1.8 2.7-3.7 1.5-1.8 3.3-4 3.9-4.9 0.7-0.8 1.3-1.5 1.4-1.5 0.3 0 10.7 6.9 13.8 9.2 1.3 1 4.3 3.1 6.7 4.7 3.9 2.7 4.6 3.2 4.6 3.6 0 0-0.8 1.1-1.7 2.4-0.9 1.2-1.7 2.3-1.7 2.5 0 0.1 0.1 0.5 0.3 0.8 0.3 0.4 0.5 0.2 2-1.8 2.4-3.4 2.3-3.3 4.2-2.1 0.8 0.6 3.3 2.3 5.4 3.9 2.2 1.6 4.5 3.3 5.2 3.7 3.5 2.5 4.8 3.4 4.9 3.7 0.1 0.2-0.6 1.5-1.6 3-1 1.4-2.8 4.1-4.1 6-1.2 1.8-2.5 3.5-2.7 3.6-0.4 0.2-3.6-1.3-6.1-3-1.1-0.7-6-3.5-8.3-4.6-1.4-0.7-2.6-0.7-2.3 0 0.1 0.3 2.8 1.9 10.8 6.5 2.6 1.5 4.7 2.8 4.7 2.9 0 0.2-0.8 1.4-1.7 2.7-0.9 1.4-2.7 4-4 5.9-1.3 1.9-2.5 3.6-2.6 3.8-0.3 0.2-1.6 0.4-4.9 0.5l-4.4 0.1zm-20.4 0.6c-0.5 0-0.9-0.2-0.9-0.4 0-0.7 6.8-8.6 7.4-8.6 0.3 0 1.4 0.8 2.6 1.8 1.1 1 3.2 2.7 4.6 3.9 2.6 2.2 3.1 2.8 2.8 3.2-0.2 0.2-14.6 0.3-16.5 0.1zm33.5-0.1c-1-0.1-1.1-0.5-0.3-1.4 0.3-0.3 1.2-1.6 2.1-2.9 2-3.2 4-5.9 4.8-6.8 0.5-0.6 0.7-0.7 1.2-0.4 2.2 1.1 18.7 11.1 18.7 11.3 0 0.1-0.3 0.3-0.7 0.3-2.6 0.1-25 0.1-25.8-0.1zm34.2 0.1q-2.1-0.1-1-1.1c0.2-0.2 1.6-1.9 2.9-3.9 1.4-1.9 2.8-3.5 3-3.5 0.4 0 8.9 5.9 10.7 7.4 0.5 0.4 0.8 0.8 0.7 1-0.2 0.2-13.2 0.3-16.3 0.1zm19.9-0.1c-0.4-0.1-1-0.5-1.5-0.8-3.4-2.5-7.6-5.6-9.7-7.1-1.3-0.9-2.4-1.8-2.5-2-0.3-0.6 8.5-12.3 9.2-12.2 0.2 0 3.2 2.7 6.6 6 3.4 3.3 7.6 7.3 9.4 8.9 5.2 4.5 5.1 4.5 4.8 5.1-0.1 0.2-0.6 0.9-1.1 1.4l-0.9 0.9h-6.9c-3.7 0-7.1 0-7.4-0.2zm24.2-0.6c-2.6-2.2-4.5-4-4.5-4.3 0-0.1 0.9-1.4 2-2.8 1.1-1.3 2.9-3.6 3.9-4.9 1.1-1.4 2.5-3.3 3.2-4.1 1.4-1.8 1.5-2 0.8-2-0.3 0-1.2 0.8-2.2 2.2-3.1 4-8.6 10.5-8.9 10.7-0.4 0.1-2.6-1.8-8.1-7-7.2-6.6-12.9-12.2-12.9-12.6 0-0.3 2-2.8 5-6.2 0.5-0.6 1.3-1.5 1.8-2 1.8-2.1 6.6-7.3 7.3-7.8 0.4-0.4 0.9-0.6 1.1-0.6 0.2 0.1 2.3 1.9 4.6 4.1l4.2 4.1 1-1.2 1-1.2-2.4-2.2c-3.4-3.2-6.1-5.9-6.1-6.2 0-0.4 7-7 10.3-9.7 1.5-1.3 2.9-2.4 3-2.5 0.1-0.1-1.1-0.2-2.6-0.1-3.4 0.2-2.6-0.3-8.7 5.2-2.5 2.2-4.6 4-4.8 4.1-0.5 0.1-12.8-12.1-12.8-12.7 0-0.2 1.4-1.1 3.8-2.5 2.1-1.1 3.8-2.2 3.8-2.4 0-0.1-0.2-0.5-0.5-0.9l-0.5-0.6-0.8 0.6c-0.4 0.3-0.8 0.5-0.9 0.5-0.1 0-1.5 0.8-3.2 1.8-1.7 0.9-3.3 1.7-3.7 1.7-0.6 0-3.7-3.2-8.8-9-1.6-1.8-2.6-2.8-2.9-2.7-0.7 0.1-2.5 1.4-2.5 1.7 0 0.2 1.2 1.6 2.7 3.2 1.4 1.5 2.6 2.9 2.6 3.1 0 0.3-2.9 3.9-4.6 5.7-1.2 1.4-1.1 1.4-4.5-0.6-3.5-2-4.1-2.2-4.1-1.8 0 0.4 2.2 2 4.3 3.2 0.8 0.5 1.6 1 1.7 1.2 0.4 0.4-0.3 1.6-2.5 4.1-0.8 1-1.4 1.8-1.4 2 0 0.2 0.2 0.5 0.4 0.7 0.4 0.5 0.5 0.4 1.6-0.7 0.6-0.7 1.9-2.3 2.9-3.5 3.4-4.2 7.1-8.5 7.4-8.7 0.2 0 2.6 2.1 5.5 5.1 2.8 2.8 7.2 7.1 9.8 9.6 2.6 2.5 4.7 4.7 4.7 4.9 0 0.2-0.4 0.7-0.8 1.1-1.9 1.8-10.8 11.9-12.7 14.5-1 1.3-1.6 1.6-2.1 0.9-0.2-0.3-1.1-1-2-1.7-0.9-0.7-3.6-2.9-6-5.1-5.1-4.5-6-5.3-6.3-5.3-0.1 0-0.6 0.6-1 1.2l-0.8 1.2 4 3.5c2.2 1.9 4.9 4.4 6 5.4 1.1 1 2.6 2.3 3.3 2.9 1.5 1.3 1.6 0.8-1 4.3-3.6 4.9-6.9 9.1-7.2 9.1-0.2 0-0.8-0.4-1.5-0.9-2.5-2-11.5-8.6-12.4-9.2-0.5-0.3-1.4-1-2-1.6-0.6-0.5-1.7-1.4-2.3-1.9-0.7-0.6-1.3-1.1-1.3-1.3 0-0.1 0.6-1 1.2-1.8 0.6-0.9 1.6-2.4 2.2-3.4 1-1.6 1.1-1.8 0.7-1.9-0.7-0.3-0.8-0.3-1.6 0.9-2.1 3.1-3.7 5.2-4 5.2-0.1 0-1.5-0.9-2.9-1.9-3.3-2.3-7.6-5.5-11.2-8.1-1.6-1.1-2.9-2.2-2.9-2.4 0-0.6 0.3-1 3.2-4.7 1.3-1.6 2.6-3.3 2.9-3.9 1.2-1.7 4.5-6 4.7-6 0.3 0 1.8 1 4.2 2.9l2.3 1.8 1.2-1.1c0.7-0.6 1.2-1.2 1.2-1.3 0-0.2-2.5-2.3-5.4-4.3-0.9-0.7-3.4-2.5-5.4-4-2-1.5-4.1-3-4.7-3.3-0.5-0.4-1-0.8-1.1-1-0.1-0.2 0.4-1.3 1.1-2.5 0.7-1.2 1.5-2.8 1.7-3.5 0.3-0.7 0.7-1.6 0.9-1.8 0.3-0.5 0.4-0.5 1.9 0.3 0.8 0.4 3.5 1.8 5.9 3 5.6 2.9 9.4 5 10.4 5.6 0.8 0.6 1 0.5 1-0.5 0.1-0.7-0.4-1-13.8-8-2.4-1.2-4.5-2.4-4.7-2.6-0.7-0.9 0.5-4.1 2.8-7.5 1.9-2.8 3.7-4.8 7.1-8.1l2.5-2.2 0.7 0.4c1.1 0.7 11.7 13 13.6 15.8 0.6 0.8 1.1 1.5 1.2 1.5 0.1 0 0.8-0.3 1.6-0.8l1.4-0.8-2.9-3.7c-1.6-2-2.9-3.8-2.9-4 0-0.4 17.1-9.2 17.8-9.2 0.5 0 0.3-0.2 3.9 5.8 3.2 5.6 3.3 5.7 3.5 4.4 0.2-0.7 0.1-1.1-0.3-1.7-1.3-1.9-5.4-9.1-5.2-9.3 0.2-0.4 15.1-7.9 15.7-7.9 0.3 0 0.8 0.5 1.6 1.8 1.2 1.9 1.3 2 2 1.7 0.5-0.2 0.2-0.9-1.1-2.8-0.5-0.8-0.9-1.6-0.8-1.8 0.1-0.2 1.1-0.7 2.3-1.3 1.1-0.6 4.3-2.2 7.1-3.7 6.8-3.5 7.9-4.1 8.4-3.9 0.2 0.1 0.9 1.1 1.6 2.2 0.7 1.1 3 4.5 5 7.6 4.9 7.4 5.9 9.1 5.9 9.5 0 0.3-0.5 0.8-1.1 1.1-1.4 0.8-1.5 1.1-0.7 2l0.4 0.6 1.2-0.8c0.6-0.5 1.3-0.9 1.4-0.9 0.2 0 0.8 0.7 1.3 1.4 0.5 0.8 2.6 3.9 4.6 7 2 3 3.6 5.8 3.6 6.2 0.1 0.5-0.6 0.9-5.3 3.3-5.2 2.6-5.4 2.7-5.8 3.7-0.2 0.6-1 2-1.7 3.1l-1.3 1.9 0.6 0.6c0.4 0.3 0.9 1.2 1.3 2 0.4 0.8 1.5 2.8 2.5 4.6 0.9 1.7 2.2 4.1 2.8 5.4l1.1 2.2-0.7 0.5c-0.4 0.4-1.3 0.9-2 1.3-0.7 0.4-2.2 1.3-3.3 2-1.2 0.6-4 2.3-6.2 3.6-3.7 2.2-6.4 4.1-6.4 4.5 0 0.5 1.3 0.2 2.4-0.5 2.4-1.7 13.3-8.2 15.6-9.2 0.5-0.3 1.2-0.4 1.4-0.4 0.2 0.1 1.2 1.7 2.3 3.5 1.1 1.8 2.5 4.1 3.2 5.2 2.6 4.2 3.4 5.8 3.3 6.1-0.2 0.3-8.8 6.8-11.6 8.9-0.6 0.4-2.3 1.6-3.7 2.7-1.4 1-2.7 1.9-2.9 1.9-0.2 0-1-0.6-1.7-1.4l-1.4-1.4-1.3 1.2-1.2 1.2 3 2.8c1.6 1.5 4.2 3.9 5.7 5.4 2.5 2.3 2.7 2.6 2.4 3.1-0.1 0.3-1.6 2.1-3.3 4-1.7 1.9-3.5 4-3.9 4.5l-0.9 1.1h-6.8-6.8zm3.4-72c0.9-0.4 1.1-0.9 1.3-2.9 0.1-0.8 0.3-1.6 0.5-1.6 0.2-0.1 0.6 0.2 0.9 0.5 1 1 4.2 3.4 4.6 3.4 0.3 0 0.4-0.9 0.4-5.7 0-3.1-0.1-5.7-0.2-5.8-0.3-0.2-3.4 1.9-4.4 3-1.1 1.1-1.7 1.1-1.7-0.1 0-0.6-0.2-1.4-0.4-1.9-0.7-1.5-1.5-1.7-7.4-1.7-5.7 0-6.6 0.2-6.9 1.4-0.1 0.3-0.2 3-0.1 5.8 0.1 4.9 0.1 5.3 0.6 5.7 0.7 0.5 11.7 0.5 12.8-0.1zm14.4 72.6c-0.1-0.3 0.2-0.7 3.9-4.8 1.5-1.7 2.9-3.1 3-3.1 0.4 0.1 8.2 7.7 8 7.9-0.3 0.2-14.7 0.3-14.9 0zm20.5 0.1c-0.5-0.2-8.3-7.7-9.9-9.5l-1.2-1.4 0.7-1c0.4-0.5 2.2-2.6 4-4.6 1.9-1.9 4.5-4.8 5.9-6.3 1.3-1.4 2.6-2.6 2.8-2.6 0.3 0 3 3 6.5 7.5 2.3 2.9 5.4 6.6 6.7 8 1.2 1.3 1.2 1.7 0 4.2-1 2.1-3 4-5.1 5-1.7 0.7-1.9 0.8-5.8 0.8-2.3 0-4.3 0-4.6-0.1zm-89.2-1.5c-1.7-1-10.6-6.4-13.5-8.1-5.2-3.1-5.7-3.4-5.7-3.9 0-0.5 7.7-11.9 8.3-12.3 0.2-0.1 1.6 0.8 4 2.6 2 1.5 4.7 3.5 5.9 4.4 6.6 4.9 9.5 7.3 9.6 7.8 0 0.3-0.6 1.3-1.3 2.2-0.7 1-2.3 3.1-3.5 4.9-1.2 1.7-2.3 3.1-2.5 3-0.1 0-0.8-0.3-1.3-0.6zm-63-2.5c-0.4-0.3-2-1.2-3.6-2.2-1.5-0.9-3.4-2.1-4.2-2.6-0.8-0.5-2.2-1.3-3.2-1.8-0.9-0.6-3.3-2-5.3-3.2-1.9-1.2-4.4-2.7-5.3-3.2-1-0.6-1.8-1.2-1.8-1.4 0-0.2 0.7-1.3 1.6-2.4 0.9-1.2 2.6-3.3 3.7-4.7 1-1.4 2.1-2.6 2.3-2.6 1 0 11.1 7.6 17.2 12.8 1.6 1.4 3.4 2.9 4.1 3.4 0.7 0.6 1.2 1.2 1.2 1.5 0 0.4-0.4 1-3.2 4.6-1 1.3-2.1 2.3-2.3 2.3-0.2 0-0.8-0.2-1.2-0.5zm166.9-8.8c-0.7-0.9-2.5-3.2-4-5.1-1.6-1.9-3.7-4.6-4.9-6-1.3-1.6-2-2.8-2-3.1 0.1-0.5 12-13.3 12.4-13.3 0.1 0 0.3 0.2 0.4 0.4 0.1 0.3 0.2 21.3 0.1 28.3 0 0.8-0.6 0.4-2-1.2zm-31.2-2.9q-3.2-2.9-3.1-3.4c0-0.5 1.3-1.6 5.2-4.6 3-2.3 5.9-4.5 6.7-5 0.7-0.5 2.1-1.6 3.1-2.4 1.1-0.8 2-1.5 2.2-1.5 0.4 0 3.5 4.7 3.5 5.2 0 0.2-0.3 0.6-0.7 0.9-0.4 0.4-2.7 2.7-5.1 5.3-7.3 7.7-8 8.5-8.4 8.5-0.1 0-1.7-1.4-3.4-3zm-162.6-10.9c0-4.5 0.1-7.6 0.3-7.7 0.5-0.3 8.2 3.9 8.2 4.5 0 0.3-1.6 2.5-3.5 5-2 2.5-3.7 4.8-3.9 5.1-0.1 0.3-0.5 0.6-0.7 0.6-0.3 0-0.4-1.1-0.4-7.5zm20.3 1.8c-1-0.8-3.1-2.4-4.6-3.5-1.5-1.1-2.7-2.2-2.7-2.4 0-0.6 3.2-5 10-13.6 0.8-1 1.6-1.8 1.7-1.8 0.4 0 3.5 3 5.8 5.5 0.8 0.8 1.9 2 2.5 2.5 0.7 0.5 1.2 1.1 1.2 1.2 0 0.2-6.3 7.7-8.2 9.7-0.7 0.8-1.6 1.9-2.1 2.6-0.5 0.7-1.1 1.3-1.3 1.3-0.3 0-1.3-0.7-2.3-1.5zm159.3-5.9c-0.6-0.9-2-3.2-3-5.1-0.9-1.8-2-3.6-2.2-3.9-1.4-2-5.6-9.7-5.5-10 0.2-0.3 11.9-6.2 14.6-7.3 2-0.9 2.1-0.8 4.6 3.1 2.9 4.5 6.7 10.6 6.7 10.8 0 0.4-13.1 14.1-13.5 14.2-0.3 0-0.8-0.5-1.7-1.8zm-173.6-4c-2-1.2-4.2-2.4-4.8-2.8l-1.2-0.6 0.1-6.6 0.1-6.5 1.4-3.1c0.8-1.8 1.6-3.3 1.8-3.5 0.3-0.2 0.7-0.1 2 0.6 13.5 7.3 16.4 8.9 16.6 9.3 0.2 0.3-0.2 1-1.5 2.7-1 1.3-2.3 3-3 3.9-4.7 6.3-6.8 8.7-7.3 8.7-0.3 0-2.2-1-4.2-2.1zm51.8-8.6c-5-3.5-5.8-4.1-5.8-4.5-0.1-0.3 0.4-1.2 1.1-2.1 0.7-0.9 3.1-4.1 5.4-7.1 2.2-3 4.1-5.5 4.3-5.5 0.4 0 7.9 5.1 8.1 5.5 0.2 0.4-0.4 1.4-3 5-1.9 2.4-3.5 4.8-3.8 5.1-1.4 2.2-3.6 5.1-3.9 5.1-0.1 0-1.2-0.7-2.4-1.5zm136.3-6.8c-0.4-0.8-1-1.7-1.2-2.1-0.2-0.3-1.3-2.2-2.5-4.1-1.2-1.9-2.2-3.7-2.2-3.9 0-0.2 0.6-0.6 1.7-1.1 4.7-1.7 5.5-2 5.7-1.8 0.1 0.1 0.2 3.3 0.2 7.2 0 8.1 0 8.3-1.7 5.8zm-145.5 0.4c-1.1-0.8-3.2-2.2-7.6-5.2-3.9-2.7-5.8-4.2-5.8-4.5 0-0.2 0.9-1.4 1.9-2.7 1.1-1.3 2.5-3.1 3.2-4 0.7-0.8 1.3-1.7 1.3-1.9 0-0.3-1.3-1.9-1.6-1.9-0.1 0-1.8 2-3.7 4.5-1.9 2.5-3.6 4.6-3.8 4.7-0.4 0.1-3.6-1.6-11.4-6-1.9-1.1-5.1-2.9-7.2-4-3.2-1.8-3.7-2.1-3.6-2.7 0-0.3 0.6-1.9 1.4-3.5 0.7-1.6 1.6-3.4 1.8-4.1 1.2-2.8 2.9-6.4 3.3-6.5 0.4-0.2 2.2 0.6 13.2 6.1 4.8 2.4 8.8 4.3 8.8 4.3 0 0 0.3-0.7 0.5-1.4 0.3-0.7 0.6-1.4 0.6-1.5 0.1-0.1-0.9-0.7-2.2-1.4-3.1-1.5-3.4-1.8-3.2-2.5 0.2-0.8 3.4-5.1 12.4-16.9 0.6-0.8 1.2-1.6 1.4-1.7 0.3-0.2 2 0.7 7.6 4.1 2.1 1.2 3.1 2 3.1 2.3 0 0.6-2.2 4-5.2 8.1-1.2 1.6-2.2 3-2.2 3 0 0.2 1.7 1.1 2 1.1 0 0 1-1.4 2.2-3.1 1.1-1.7 2.5-3.8 3.1-4.6 2.6-3.4 5.2-8.5 6.5-12.2 0.3-1 0.7-1.8 0.9-1.9 0.6-0.2 3.1 1.5 7.8 5.3 4.6 3.7 6.2 5.2 6.1 5.6-0.1 0.1-1.5 1.7-3.2 3.5-3.7 3.9-5.1 5.6-6.6 8q-2.3 3.7-3 8.1c-0.2 1.3-0.7 3-1.1 3.8-0.7 1.4-2.4 4.2-2.9 4.5-0.3 0.2-2.3-0.8-4.3-2.1l-1.4-1-1.1 1.2c-0.5 0.6-0.9 1.3-0.9 1.4 0 0.2 1.3 1 2.7 1.9 1.4 0.9 2.7 1.8 2.7 2.1 0.1 0.4-2.3 3.7-6.3 9-1.2 1.6-2.6 3.5-3.1 4.2-1.1 1.4-1.7 1.5-3.1 0.5zm-31-2.3c-2.7-1.5-6.9-3.7-9.1-4.9-2.3-1.2-4.3-2.4-4.3-2.6-0.3-0.7 4.8-12 5.5-12 0.2 0 0.9 0.3 1.5 0.6 0.6 0.4 1.9 1.1 2.7 1.5 2.1 1.2 9.8 5.5 13.9 7.9q3.3 1.9 3.4 2.4c0 0.3-1.3 2.2-3.7 5.2-2.8 3.5-3.8 4.6-4.3 4.6-0.3 0-2.8-1.2-5.6-2.7zm150.5 0.7c-0.3-0.2-1.1-1.7-6.1-10.9-1.9-3.4-1.9-3.5-1.5-4 0.3-0.3 0.6-0.5 0.7-0.5 0.1 0 1.2-0.6 2.4-1.3 2.9-1.7 10.6-5.6 11.2-5.6 0.5 0 9.8 13.9 9.6 14.4-0.1 0.2-1.9 1.2-4 2.2-10.1 4.9-12 5.8-12.3 5.7zm-166.9-9.5c-0.5-0.3-1-0.7-1-1-0.1-0.3-0.1-5.4-0.1-11.4l0.1-10.8 2.2-4.5c1.2-2.5 2.4-4.4 2.6-4.4 0.2 0 2.3 0.9 4.6 2 2.4 1.1 4.6 2.1 4.9 2.2 0.4 0.2 0.6 0.4 0.6 0.7 0 0.3-2.8 6.9-5.6 12.9-0.6 1.4-2.3 5.2-3.7 8.5-3 6.6-3 6.6-4.6 5.8zm184.5-2.8c-1.2-2-5.7-9.1-6.6-10.3-1-1.5-0.8-1.7 5.1-4.5 7.6-3.6 10.9-5 11.3-4.9 0.5 0.2 0.5 18.2 0 18.7-0.6 0.4-7.3 2.9-8 2.9-0.5 0-0.8-0.4-1.8-1.9zm-9.5-15.4c-0.7-0.5-10-14.2-10.2-15 0-0.2 0.4-0.7 1.1-1.2 0.6-0.4 2.4-1.9 4-3.4 2.4-2.2 6.7-5.8 8.6-7.2 0.6-0.4 1.2 0.1 6.9 5.6 1.9 1.9 4.5 4.4 5.7 5.4 3.5 3.3 3.5 3.3 3.5 5 0 2.2-0.3 2.7-2.4 3.5-0.9 0.4-2.4 1-3.3 1.4-3.4 1.6-6.7 3.1-6.8 3.1-0.2 0-6 2.7-6.5 3.1-0.1 0-0.4-0.1-0.6-0.3zm-146.1-6.3c-1-0.5-4.1-2-6.8-3.3-2.8-1.3-5.1-2.5-5.1-2.7-0.1-0.1 0.3-1.2 0.8-2.3 0.5-1.2 1.4-3.2 2-4.5 1.3-3 2-4.5 3.8-8.2 0.7-1.6 1.8-3.9 2.4-5.1 0.8-1.7 1.1-2.1 1.6-2.1 0.5 0 8.5 4.2 12.6 6.7 1.1 0.6 2.7 1.6 3.7 2.1 1.2 0.7 1.8 1.2 1.8 1.6 0 0.2-1 1.6-2.1 3-1.1 1.4-2.7 3.4-3.5 4.6-0.8 1.1-2.7 3.6-4.2 5.6-1.4 2-3 4.1-3.3 4.7-0.9 1.3-1.3 1.3-3.7-0.1zm61.4-2.8c-0.8-0.8-2.4-2.6-3.5-3.9-1.1-1.3-2.3-2.6-2.6-3-0.5-0.5-0.5-0.6-0.1-1.1 0.9-0.9 18.7-10.3 19.6-10.3 0.4 0 2.1 2.5 4.8 7.2 1.5 2.5 1.7 3.2 1.5 3.5q-0.5 0.5-4.4 2.5c-6.1 3-13.6 6.6-13.7 6.6-0.1 0-0.8-0.6-1.6-1.5zm-76.1-4c-0.5-0.2-2.8-1.3-5-2.3-2.7-1.3-4-2.1-4-2.4 0-0.2 0.7-1.9 1.6-3.7 0.8-1.9 2.3-5 3.1-7 0.9-1.9 1.9-3.8 2.2-4 0.4-0.5 0.6-0.5 4.9 2 2.5 1.4 4.7 2.7 4.9 3 0.3 0.4-0.2 1.5-3.9 9.6-0.7 1.4-1.4 3-1.6 3.6-0.4 1-0.8 1.7-1.1 1.7-0.1 0-0.6-0.2-1.1-0.5zm177.1-4.4c-1.3-1.3-4.2-4.1-6.5-6.3-2.3-2.2-4.2-4.1-4.2-4.3 0-0.5 0.3-0.7 7.8-7.2 2.9-2.5 5.4-4.5 5.6-4.5 0.5 0 0.6 4 0.6 14.7 0 9.2 0 9.9-0.4 9.9-0.3 0-1.6-1.1-2.9-2.3zm-28.4-0.2c-0.2-0.3-1.9-2.8-3.7-5.6-1.9-2.8-3.9-6-4.6-7.1-0.7-1.2-1.8-2.9-2.4-3.8-1.1-1.8-1.1-2.2 0.2-2.6 0.7-0.2 4.3-1.6 8.4-3.2 2.9-1.1 3.2-1.2 3.7-0.8 0.9 0.5 12.5 11.7 12.6 12.1 0.1 0.3-0.5 0.9-5 4.6-1.6 1.4-4.2 3.5-5.6 4.8-1.5 1.2-2.8 2.2-3 2.2-0.2 0-0.5-0.3-0.6-0.6zm-52.5-2.4c-0.7-1.2-1.8-2.8-2.3-3.6-1.2-1.9-2.8-4.7-2.6-4.8 0.1-0.2 2.2-1.3 7.9-4.3 1.5-0.8 3.8-2 5.1-2.7 1.3-0.7 2.5-1.2 2.7-1.1 0.2 0.1 0.8 1 1.5 2.1 0.6 1.1 2 3.4 3.1 5.1 1 1.7 1.9 3.2 1.9 3.3 0 0.5-2 1.7-10.2 5.8-2.7 1.3-5.1 2.4-5.3 2.4-0.4 0-0.9-0.6-1.8-2.2zm-109.5 1l-1.9-1-0.1-10c-0.1-8.7 0-10 0.3-10.2 0.3-0.1 1.6 0.5 3 1.3 1.4 0.8 3.4 1.9 4.4 2.5 2.8 1.4 4.4 2.5 4.4 2.8 0 0.2-0.8 2-1.7 3.9-1 2-2.6 5.2-3.5 7.3-1.8 3.9-2.1 4.4-2.6 4.4-0.2 0-1.2-0.5-2.3-1zm55.1-1.2c-1.2-0.7-3.3-1.9-4.5-2.6-1.3-0.7-2.7-1.5-3.1-1.8-0.8-0.6-7.9-4.5-16.8-9.4-3.9-2.1-3.8-1.8-2.4-5.1 1.8-4.1 2.2-4.9 2.6-4.9 0.4 0 7.9 3.5 11.3 5.2 0.7 0.4 1.3 0.6 1.4 0.6 0.3 0 2-2.7 1.8-2.9-0.1-0.1-2.9-1.4-6.2-2.9-3.2-1.5-6.2-3-6.5-3.3l-0.7-0.5 0.9-2.4c0.5-1.3 0.9-2.5 1.1-2.6 0.2-0.3 0.5-0.2 7.9 1.1 2.4 0.5 5.5 1 6.8 1.2 5 0.8 14 2.3 15.6 2.6 1.5 0.3 1.8 0.5 1.9 0.9 0 0.4-0.4 2.3-0.9 4.3-0.5 2-1.2 4.8-1.5 6.3-1 4.8-1.3 5.8-1.9 5.5-0.1-0.1-0.4 0.3-0.7 0.9-0.5 1-0.5 1.1-0.1 1.5 0.6 0.5 0.2 2.2-1.2 6-1.1 2.6-1.7 3.7-2.3 3.7-0.1 0-1.3-0.7-2.5-1.4zm22.8-0.6c-2.3-2-7.6-6.1-10.8-8.4-0.9-0.6-1.7-1.3-1.7-1.4 0-0.7 1.6-8.6 2.8-13.4 0.6-2.7 1.4-6 1.7-7.4 0.3-1.4 0.7-2.7 0.9-2.9 0.3-0.2 1-0.2 2.9 0 3.7 0.4 8.4 0.8 9.7 0.8 0.7 0 1.4 0.2 1.5 0.3 0.2 0.2 0.5 2.7 0.7 5.7 0.3 2.9 0.6 6.2 0.7 7.4 0.9 9.1 1.1 11.1 1.5 12.9 0.2 1.1 0.4 2.4 0.4 2.8 0 0.8-0.2 0.9-4.5 3.5-1.1 0.6-2.3 1.3-2.7 1.6l-0.7 0.5zm11.7-4.2c-0.7-2.3-1.4-6.6-1.6-10.7-0.1-2.4 0.1-2.7 2.3-2.7 0.9 0 3.4-0.1 5.5-0.3 10-0.7 10.4-0.7 11.3-0.3 0.9 0.4 2.8 3.1 2.5 3.7-0.1 0.4-1.7 1.3-5.6 3.3-1.4 0.7-5.1 2.7-8.2 4.3-3.2 1.7-5.8 3.1-5.9 3.1-0.1 0-0.3-0.2-0.3-0.4zm36.5-4.7c-3.4-5.9-4.1-7.2-4.1-7.5 0-0.3 2-1.6 5.3-3.4 0.9-0.5 3.8-2.1 6.4-3.5 2.8-1.5 4.9-2.5 5.3-2.4 0.4 0 1.2 1 2.7 3.5 1.2 1.9 2.7 4.3 3.4 5.4 0.7 1 1.2 2 1 2.1-0.2 0.2-1.2 0.8-12.1 6.4-2.8 1.4-5.3 2.6-5.6 2.6-0.3 0-1-0.9-2.3-3.2zm-106 0.1c-1.3-0.7-2.1-1.2-6.1-3.6-1-0.6-1.6-1.1-1.5-1.4 0-0.3 1.5-3.6 3.5-7.5 2.8-5.7 3.6-7 4.1-7.1 0.3 0 2 0.6 3.8 1.5 4.5 2.3 4.9 2.6 4.9 3.4 0 0.6-6 14.3-6.6 15.1-0.4 0.4-0.4 0.4-2.1-0.4zm157-1.1c-0.4-0.4-2-1.8-3.5-3.2-1.6-1.4-4.1-3.8-5.6-5.2-3.1-3-3.1-3-0.8-4.2 0.7-0.3 3.3-1.6 5.8-2.9 2.5-1.3 5-2.4 5.5-2.4l0.8-0.2 1.3 3.3c0.7 1.8 1.8 4.6 2.4 6.2 0.7 1.6 1.3 3.1 1.3 3.4 0.1 0.5-0.5 1.1-2.9 3.3-1.7 1.5-3.2 2.7-3.3 2.7-0.1 0-0.5-0.4-1-0.8zm-170.5-6.8c-2.1-1.2-4.5-2.6-5.4-3.1-0.8-0.5-1.9-1.1-2.3-1.4l-0.9-0.5v-5.4c0-5.4 0-5.5 0.7-6.9 0.4-0.8 1.1-1.9 1.5-2.4l0.8-0.9 1.9 0.8c1.8 0.8 9.5 4.3 13.4 6.1 0.9 0.4 1.6 0.8 1.7 1 0.2 0.3-0.2 1.3-3.7 8.6-2.4 5-3.3 6.4-3.7 6.4-0.1 0-1.9-1-4-2.3zm103.4-0.2c-1.8-2.8-1.9-2.8-3.9-2.8-0.9 0-3.6 0.1-5.9 0.3-9.8 0.6-12 0.7-12.3 0.4-0.1-0.1-0.4-0.9-0.4-1.7-0.1-0.9-0.4-3-0.6-4.7-0.6-5.3-0.7-6.4-0.3-6.7 0.3-0.2 1.1-0.2 8.1 0.5l3.3 0.2 2.2-0.9c2.4-0.9 6.3-2.3 8.8-3.2 1.7-0.6 2-0.5 3.1 2 0.4 1.1 2.1 4.7 3.6 7.9 1.6 3.3 2.8 6.1 2.8 6.4-0.1 0.3-6.5 4-7.2 4-0.1 0-0.6-0.8-1.3-1.7zm75.1 0.6c-0.9-2-2.5-6-2.5-6.2 0-0.2-0.5-1.5-1.1-3-0.9-2.1-1-2.8-0.8-3.1 0.2-0.2 1.3-0.7 2.5-1.1 1.2-0.5 3.5-1.3 5.1-1.9 4.4-1.7 4.3-1.7 4.7-1 0.3 0.4 0.4 1.9 0.6 5.4l0.1 4.9-1.4 1.3c-2.1 2-6.3 5.5-6.6 5.5-0.1 0-0.4-0.4-0.6-0.8zm-36.5-1.2c-0.3-0.6-1.1-1.9-1.8-2.9-3.4-5.4-4.2-6.7-4.2-7.1 0-0.5 0.4-0.8 5.6-3.8 0.8-0.5 1.6-0.8 1.9-0.8 0.5 0 6.9 5.6 10.1 8.9 1.7 1.7 1.7 2.2 0.2 2.6-0.7 0.1-1.4 0.4-7.5 3-1.4 0.6-2.8 1.1-3.1 1.1-0.4 0-0.8-0.4-1.2-1zm-30.9-6.9c-5-10.4-5.6-11.7-5.2-12.1 0.1-0.2 1.5-0.7 2.9-1.2 1.5-0.4 3.6-1.2 4.7-1.6 2.8-1.1 4.2-1.3 8-1.2 2.6 0.1 3.3 0.2 3.6 0.6 0.7 0.9 5.6 10.1 5.6 10.4 0 0.3-2.7 1.9-6.5 4-9.7 5.3-10.2 5.5-10.6 5.5-0.2 0-1.3-1.9-2.5-4.4zm40.7-2.8c-2.9-2.7-5.6-5.1-5.8-5.4-0.6-0.6-0.6-0.6 0-1.1 0.2-0.3 2.7-1.9 5.4-3.6l5-3.1h5.5c6.3 0.1 5.9-0.1 7 2.7 0.4 0.9 1.2 3.1 1.9 4.8 0.7 1.8 1.1 3.3 1.1 3.4-0.3 0.4-14 7.1-14.5 7.1-0.1 0-2.6-2.1-5.6-4.8zm-129.7-1c-1.2-0.8-9.9-5.1-13.1-6.4-10.7-4.5-11.9-5.2-9.7-5.6 1.2-0.2 28-0.2 28.3 0.1 0.1 0.1-0.7 2.9-1.7 6.2-2.1 6.7-2.2 6.8-3.8 5.7zm35.6-0.3c-0.7-0.1-4-0.6-7.5-1.2-8.6-1.2-8.8-1.2-13.3-2-8.6-1.5-8.7-1.6-8.8-2.4-0.1-0.6 1.3-5.1 1.8-5.9 0.1-0.3 3.8-0.4 16.4-0.4 8.9 0 16.2 0 16.3 0.1 0.1 0.1-0.4 2.9-1.1 6.1-1.5 6.6-1.3 6.3-3.8 5.7zm114.9-3c-0.4-0.9-0.9-2.1-1.1-2.6-0.2-0.6-0.8-2.1-1.3-3.3-0.4-1.2-0.8-2.3-0.8-2.6 0-0.3 0.6-0.4 5-0.3 5 0.1 5.2 0.1 6.7 0.8 1.7 0.8 3.5 2.4 4.4 3.9 0.5 0.7 0.5 0.9 0.2 1.2-0.4 0.4-10.2 4.1-11.4 4.3-0.9 0.1-1 0.1-1.7-1.4zm-39.4 0.1c-0.2-0.2-0.8-1.3-1.4-2.5-0.6-1.1-1.6-2.9-2.1-3.8-1.7-2.8-1.9-2.6 3.8-2.7 7.1-0.1 15.5 0 15.5 0.3 0 0.3-14.8 9-15.4 9-0.1 0-0.3-0.1-0.4-0.3zm-49.4-1.7c-3-0.3-3.8-0.4-4.1-0.8-0.2-0.3-0.3-1.4-0.3-3.5 0-2.9 0-3 0.6-3 1.8-0.1 30.6-0.1 31.5 0 0.8 0.1 0.9 0.2 0.7 0.5-0.2 0.2-0.5 0.3-0.7 0.3-0.3 0-2.3 0.7-8.6 2.7-1.3 0.5-4.5 1.6-6.9 2.5-5 2-5.1 2-12.2 1.3zm-14.1-1.2c-2.4-0.2-4.6-0.5-4.8-0.5-0.2 0-0.3-0.3-0.3-0.9 0-1.1 0.7-4.1 1-4.4 0.3-0.4 11.9-0.4 12.2-0.1 0.1 0.1 0.3 1.6 0.3 3.3l0.1 3-2 0.1c-1.1 0-4-0.2-6.5-0.5z"/><path class="c" d="m8.9 140.2c-2.8-0.5-5.6-2.7-7.3-5.7-0.9-1.5-0.9-1.7-1-4.7-0.1-3-0.1-3.1 0.6-4.1 1.5-2.2 0.9-2.4 8 1.9 12.1 7.3 17.3 10.6 17.3 11 0 0.2-0.3 0.7-0.8 1.1l-0.7 0.8h-7.5c-4.2-0.1-8-0.2-8.6-0.3zm40.3-1c-1.4-1.2-6.8-5.8-9.8-8.2-0.8-0.7-1.6-1.4-1.6-1.6-0.1-0.2 0.6-1.3 1.5-2.5 4.5-6 5.2-6.9 5.2-7.1 0-0.1-0.4-0.3-0.9-0.5-1-0.3-0.8-0.5-3.9 3.8-1.1 1.5-2.4 3.2-2.9 3.7l-0.9 1-1.9-1.5c-5.4-4.5-7.7-6.4-8.7-7.3l-1-0.9 1.8-2.1c1-1.2 3.6-4.1 5.6-6.6 2.1-2.4 3.9-4.4 4-4.4 0.1 0 0.6 0.4 1 0.8l0.8 0.8 0.4-0.8c0.3-0.5 0.5-1 0.5-1.2 0-0.1-1-1-2.1-1.9-3-2.4-9.9-9.7-9.6-10.2 0.9-1.4 7.3-9.2 7.6-9.2 0.5 0 12.1 7.8 14.8 9.8 0.9 0.7 3.4 2.5 5.6 4 2.3 1.5 4.1 2.9 4.1 3.1 0 0.2-0.8 1.3-1.6 2.5l-1.7 2.1 0.5 1.1 0.5 1 2-2.6c1.1-1.5 2.2-2.7 2.4-2.7 0.4 0 2.2 1.3 6.9 4.8 1.6 1.2 4.5 3.3 6.4 4.6 1.9 1.3 3.4 2.5 3.4 2.7 0 0.2-1.2 2.1-2.6 4.1-1.5 2.1-3.3 4.7-4 5.8-0.9 1.3-1.6 2.1-1.9 2.1-0.3 0-2.8-1.4-5.6-3-2.8-1.6-6.2-3.5-7.4-4.2-2.3-1.1-2.3-1.1-3.1-0.7-0.4 0.2-0.7 0.5-0.8 0.6 0 0.2 5.4 3.5 12.9 7.7 1.5 0.8 2.7 1.7 2.7 1.9 0 0.2-0.5 1.1-1.2 2-0.6 0.9-2.3 3.4-3.7 5.5-1.4 2.1-2.9 4.1-3.2 4.4-0.7 0.6-0.9 0.6-4.9 0.6h-4.3zm-20.2 1.1c-0.4-0.2 0.1-1 2.6-3.9 2.9-3.5 4-4.7 4.3-4.7 0.2 0 2.5 1.9 7.2 6 1.2 1 2.1 2.1 2.1 2.3 0 0.3-1.2 0.3-7.9 0.4-4.4 0-8.1 0-8.3-0.1zm33.4-0.1c-0.2-0.4 7.2-11.1 7.7-11.1 0.3 0 5.6 3 8.1 4.6 0.8 0.6 3 1.9 8.4 5 1.5 0.9 2.1 1.4 1.8 1.5-0.4 0.3-25.8 0.3-26 0zm33.9 0c-0.2-0.3 3.4-5.5 4.8-7.1l0.8-0.9 1.7 1.1c6.9 4.8 9.3 6.6 9.1 6.9-0.2 0.3-16.2 0.3-16.4 0zm43.2-2.1c-1.4-1.4-2.6-2.5-2.6-2.6 0-0.1 0.8-1.1 1.7-2.3 1-1.2 2.7-3.3 3.8-4.8 1.1-1.4 2.7-3.5 3.5-4.5 0.9-1.1 1.6-2 1.6-2.1 0 0-0.4-0.1-0.9-0.1-0.8 0-1.1 0.2-2.9 2.6-3.2 4.1-7.9 9.9-8.3 10-0.2 0.1-0.7-0.2-1.2-0.6-2.7-2.3-19.8-18.3-19.8-18.6 0-0.3 6.7-8 10.1-11.8 3.4-3.7 4.7-4.9 5-4.8 0.1 0 2.1 1.8 4.4 4 2.3 2.2 4.3 4 4.4 4 0.2 0 0.8-0.5 1.4-1.2l1-1.1-4.1-4c-2.3-2.2-4.2-4.2-4.2-4.4 0-0.6 6.9-7.1 11.7-10.9 1.2-0.9 2-1.7 2-1.7-0.1-0.1-1.6 0-3.5 0.2l-3.4 0.3-1.8 1.4c-0.9 0.9-3.1 2.9-4.9 4.5-1.8 1.6-3.3 3-3.5 3-0.3 0-12.3-12.1-12.3-12.4 0-0.2 1.6-1.3 3.7-2.4 2-1.1 3.7-2.2 3.7-2.4 0.1-0.2-0.2-0.7-0.5-1.2l-0.6-0.7-4.2 2.3c-2.2 1.2-4.3 2.2-4.5 2.2-0.4 0-6.8-6.7-9.3-9.7-0.9-1.1-1.8-1.9-2-1.9-0.6 0-2.7 1.1-3.1 1.7-0.3 0.3 0.3 1 2.5 3.4l2.8 3.1-1.5 1.9c-2 2.6-3.8 4.4-4.2 4.4-0.4 0-3.7-1.7-4.9-2.6-0.4-0.3-0.9-0.5-1-0.5-0.1 0-0.4-0.2-0.7-0.5-0.5-0.4-0.5-0.4-0.9 0.1-0.2 0.2-0.3 0.6-0.3 0.7 0 0.3 1.9 1.6 5.2 3.7 0.6 0.4 1.1 0.8 1.1 1 0 0.3-1.4 2.2-3 4l-1.2 1.5 0.7 0.9 0.8 0.8 2.2-2.6c1.2-1.5 3.6-4.3 5.2-6.2 1.6-2 3.3-3.9 3.6-4.2l0.6-0.6 2 2.1c1.1 1.1 3.5 3.6 5.5 5.5 7 6.7 11.9 11.6 11.9 11.9 0 0.2-0.3 0.6-0.7 0.9-1.4 1.3-9.2 10-10.9 12.2-1 1.2-2 2.5-2.3 2.9l-0.6 0.6-1.6-1.3c-2.3-1.8-5.3-4.3-8.1-6.8-4.5-4.1-5.4-4.8-5.7-4.4-0.1 0.2-0.6 0.9-1 1.6l-0.8 1.2 0.7 0.6c0.4 0.3 3.1 2.7 6 5.3 2.9 2.6 5.8 5.1 6.4 5.7 1.5 1.3 1.5 1.3-0.5 3.9-4.5 5.9-6.6 8.6-6.9 8.9-0.4 0.4-1.5-0.3-5.7-3.6-0.5-0.4-2.5-1.9-4.4-3.2-5.5-4.1-9.4-7.1-9.4-7.4 0-0.1 0.9-1.4 1.9-2.8 2.4-3.5 2.8-4.1 2.3-4.4-0.8-0.5-1.5-0.2-2.2 0.8-0.5 0.6-1.4 1.9-2.2 3-0.8 1.1-1.5 2-1.6 2-0.2 0-0.6-0.2-1-0.6-0.4-0.3-2.6-1.9-4.9-3.5-2.2-1.6-4.7-3.3-5.5-3.9-0.8-0.6-2.3-1.8-3.4-2.6-1-0.7-1.9-1.5-1.9-1.6 0-0.1 1.1-1.7 2.4-3.4 1.4-1.8 2.7-3.5 3-3.9 0.3-0.4 1.5-2 2.7-3.7 1.2-1.6 2.4-3 2.6-3 0.3 0 4.4 3 5.6 4.1l0.6 0.5 1.4-1.3c0.8-0.7 1.4-1.4 1.5-1.5 0-0.3-3.3-2.9-6.7-5.3-1-0.8-3.1-2.3-4.5-3.4-1.5-1.1-3.3-2.4-4.1-2.8-0.7-0.5-1.3-1.1-1.3-1.3 0-0.2 0.5-1.3 1.2-2.4 0.6-1.1 1.3-2.6 1.6-3.4 0.2-0.7 0.5-1.4 0.6-1.6 0.2-0.2 1.7 0.4 5 2.1 5.2 2.7 11 5.8 12.5 6.7 0.6 0.4 1.1 0.6 1.2 0.6 0.3 0 0.9-1.1 0.9-1.6 0-0.2-4.3-2.6-9.4-5.4l-9.5-5 0.2-1.1c0.3-2.9 3.3-7.4 8.3-12.5 3.3-3.4 3.5-3.6 4.2-3.3 1 0.3 12.2 13.3 13.9 16 0.4 0.7 0.9 1.3 1.1 1.3 0.4 0 3.4-1.9 3.4-2.1 0-0.1-0.1-0.3-0.3-0.3-0.3-0.2-5.6-6.9-5.6-7.1 0-0.3 17.5-9.1 17.7-8.9 0.1 0.1 1.7 2.6 3.5 5.7 1.8 3 3.4 5.5 3.5 5.5 0 0.1 0.2-0.5 0.4-1.2l0.3-1.3-2.7-4.4c-1.5-2.5-2.7-4.8-2.7-5.1 0-0.4 1.5-1.2 7.4-4.3 4.1-2 7.6-3.7 7.7-3.7 0.2 0 0.8 0.8 1.5 1.7 0.6 1 1.1 1.9 1.2 1.9 0.1 0.2 1.7-0.5 1.7-0.8 0-0.1-0.5-1-1.1-1.9-0.6-1-1.1-1.9-1-2 0.1-0.4 16.5-9 17.1-9 0.1 0 0.4 0.3 0.6 0.6 0.3 0.5 10.2 15.8 11.4 17.5 0.7 0.9 0.5 1.3-0.8 2-0.6 0.4-1.1 0.7-1.1 0.9 0 0.3 1 2 1.2 2 0.1 0 0.7-0.4 1.4-0.8l1.2-0.8 0.6 0.6c1.4 1.8 8.9 13.5 8.7 13.8-0.1 0.3-4.6 2.7-9.3 5-0.9 0.4-1.2 0.8-1.9 2.1-0.4 0.9-1.2 2.4-1.8 3.3-1.1 1.7-1.1 1.8-0.7 2.2 0.5 0.4 3.3 5.4 6.7 11.9 1 1.9 1.1 2.2 0.8 2.4-0.2 0.2-2 1.2-3.9 2.3-9.4 5.5-12.4 7.4-14.1 8.8-0.5 0.5-0.6 0.6-0.3 0.8 0.8 0.5 1.9 0.3 3.1-0.6 3.1-2.2 15.6-9.4 16.4-9.4 0.1 0 0.8 0.9 1.4 2 0.7 1.1 2.2 3.6 3.3 5.5 2.8 4.5 3.9 6.3 3.9 6.8 0 0.2-1.4 1.4-3.1 2.6-1.7 1.2-4.3 3.2-5.8 4.4-2.4 1.8-5.2 3.8-8 5.9l-0.8 0.6-1.6-1.4-1.7-1.4-1.3 1.3c-0.7 0.7-1.3 1.4-1.2 1.5 0 0.1 2.5 2.4 5.5 5.2 3 2.8 5.4 5.3 5.5 5.5 0 0.4-6.9 8.6-8.1 9.5-0.3 0.3-2.1 0.4-6.9 0.4h-6.4zm-24.7 0.7c-9.6-6.9-11.3-8.2-11.3-8.5 0-0.3 5.8-8.3 8.2-11.2l0.5-0.7 0.8 0.7c0.4 0.3 3.5 3.2 6.8 6.4 3.4 3.2 7.7 7.3 9.6 9 1.9 1.7 3.5 3.3 3.5 3.6 0 0.2-0.5 0.9-1 1.4l-1 1h-6.9-6.9zm29.2-70.7c1.4-0.5 2-1.5 1.9-3.2-0.1-1.9 0.3-1.9 2.3-0.2 1.6 1.4 3.4 2.7 3.8 2.7 0.1 0 0.2-2.7 0.2-5.9 0-3.9-0.1-6-0.3-6-0.4 0-2.4 1.3-4 2.7-0.8 0.7-1.6 1.2-1.8 1.1-0.1-0.1-0.3-0.7-0.3-1.3 0-1-0.1-1.4-0.9-2.1l-0.9-0.9h-5.8c-5.5 0-5.8 0-6.5 0.5l-0.7 0.6v5.6 5.7l0.7 0.5c0.7 0.5 1 0.6 6 0.5 3.4 0 5.7-0.1 6.3-0.3zm15.3 72.2c-0.2-0.2 1.6-2.3 5.2-6.2l1.4-1.4 0.9 0.9c0.5 0.5 2.2 2.1 3.7 3.6 1.6 1.5 2.8 2.9 2.7 3-0.2 0.3-13.7 0.3-13.9 0.1zm18.9-1.1c-0.7-0.7-3.1-3-5.2-5.1-2.2-2.1-4-4.1-4.2-4.3-0.1-0.3 0.2-0.9 1.8-2.6 3.5-4 10.8-11.8 11.1-11.8 0.3 0 2.1 2.2 5.9 6.9 1.4 1.8 3.8 4.6 5.3 6.4 3 3.7 3 3.5 1.7 6-0.9 1.9-3 4-4.9 4.8-1.6 0.7-1.9 0.8-6 0.9l-4.3 0.1zm-88.1-0.7c-11.6-7-18.2-10.9-18.5-11.2-0.4-0.3 0.1-1.2 3.5-6.2 2.2-3.3 4.2-5.9 4.3-6 0.3-0.1 2.7 1.6 11.9 8.5 5.6 4.2 7.3 5.6 7.3 5.9 0 0.2-0.4 0.8-0.8 1.3-0.4 0.6-1.9 2.7-3.3 4.6-1.4 2-2.7 3.7-2.8 3.8-0.1 0.1-0.8-0.3-1.6-0.7zm-64.6-3.5c-1.5-0.9-3.3-2-4.1-2.5-2.4-1.5-14.3-8.6-15.6-9.4-0.8-0.4-1.4-1-1.4-1.1 0-0.5 0.3-0.9 4.1-5.9 1.5-1.9 2.9-3.5 3-3.5 0.4 0 2 1.1 6.4 4.5 5.1 3.7 5.2 3.8 9 7 1.9 1.6 4.2 3.6 5.2 4.3 0.9 0.8 1.6 1.6 1.6 1.7 0 0.4-4.9 6.6-5.2 6.6-0.1 0-1.5-0.7-3-1.7zm169.6-6.7c-0.2-0.3-2.8-3.5-5.7-7.2-3-3.6-5.5-6.9-5.7-7.1-0.3-0.5 0-0.9 2.4-3.5 6-6.5 9.4-10 9.6-9.8 0.3 0.3 0.3 27.9 0 28-0.1 0.1-0.4-0.1-0.6-0.4zm-32.1-3.8c-1.7-1.6-3.1-3.1-3.1-3.2 0-0.2 0.7-0.8 1.5-1.4 0.8-0.6 2.9-2.1 4.6-3.4 9.1-7 11-8.4 11.3-8.1 0.6 0.5 2.8 4.2 2.7 4.6 0 0.2-2.6 3-5.6 6.3-7.2 7.6-7.7 8.2-8 8.1-0.1 0-1.6-1.3-3.4-2.9zm-162.3-10.8c0-3.9 0-7.1 0.1-7.2 0.4-0.4 7.8 3.8 7.8 4.3 0 0.1-0.5 0.8-1 1.5-1.9 2.4-4.9 6.3-5.7 7.4-0.5 0.6-0.9 1.1-1 1.1-0.1 0-0.2-3.2-0.2-7.1zm17.5-0.3c-2.5-1.9-4.6-3.6-4.6-3.8 0-0.5 10.6-14.3 11.4-14.8 0.3-0.2 9 8.5 9 8.9 0 0.3-2.7 3.5-6.1 7.3-1.4 1.6-3 3.5-3.7 4.3-0.6 0.9-1.2 1.6-1.3 1.6-0.1 0-2.2-1.6-4.7-3.5zm162.1-3.7c-0.6-1-1.7-2.8-2.4-4.1-0.8-1.3-2.3-4-3.5-6.1-3.8-6.3-4.9-8.4-4.8-8.6 0.2-0.3 12.5-6.4 14.2-7.1 0.8-0.3 1.6-0.5 1.8-0.5 0.6 0 9 13.1 9 14.1 0 0.2-2 2.5-4.5 5.1-2.4 2.6-5.2 5.6-6.2 6.7-1 1.2-2 2.1-2.2 2.1-0.2 0-0.8-0.7-1.4-1.6zm-171.2-2.8c-0.6-0.4-2.7-1.5-4.6-2.5-1.9-1.1-3.5-2-3.6-2.2-0.2-0.1-0.2-3.1-0.2-6.6l0.1-6.4 1.5-3.1c1.7-3.5 1.7-3.5 3.7-2.4 0.6 0.4 1.9 1.1 2.9 1.6 9.7 5.2 13 7.1 13.1 7.4 0.1 0.2-0.5 1.3-1.4 2.4-6.8 8.8-9.7 12.5-10 12.5-0.2 0-0.8-0.3-1.5-0.7zm48.8-10.3c-1.3-0.9-3-2.1-3.9-2.7-0.9-0.7-1.5-1.3-1.4-1.5 0.1-0.2 1.7-2.4 3.5-4.8 1.9-2.5 4.1-5.4 4.9-6.6 0.9-1.2 1.7-2.3 1.9-2.4 0.3-0.3 1.3 0.3 4.2 2.2 2.2 1.4 3.9 2.8 3.9 3 0 0.3-0.9 1.6-5.3 7.5-0.9 1.3-2.5 3.5-3.4 4.7-0.9 1.3-1.8 2.3-1.8 2.3-0.1 0-1.2-0.7-2.6-1.7zm135.8-8.1c-1-1.6-2.5-4.1-3.3-5.5-0.9-1.3-1.6-2.5-1.6-2.6 0-0.3 6.2-2.7 6.7-2.7 0.4 0 0.4 1.1 0.4 6.9 0 3.8-0.1 6.9-0.2 6.9-0.1 0-1-1.4-2-3zm-174 0.6c-6.9-3.7-8.3-4.4-11.4-6.1-1.7-0.9-3.2-1.8-3.4-2-0.3-0.4-0.1-0.9 2.7-7.3 1.5-3.1 2.1-4.3 2.5-4.4 0.4-0.1 2.7 1.1 16.6 9 2.9 1.6 4.7 2.8 4.7 3.1 0 0.4-0.4 0.9-4.5 6-1.6 2.1-3 3.8-3.2 3.8-0.1 0-1.9-0.9-4-2.1zm29.2 1.2c-0.7-0.5-2.1-1.4-3.1-2.1-4.3-3-7.3-5-8.6-5.9-0.7-0.5-1.4-1.1-1.4-1.2 0-0.2 3.5-4.7 5.5-7 0.5-0.6 0.9-1.3 0.9-1.5 0-0.2-0.4-0.8-1-1.5l-1-1.1-3.7 4.8c-2 2.6-3.7 4.8-3.8 4.8-0.2 0-5.6-3-9-4.9-3.9-2.3-4.9-2.8-9.3-5.2-1.9-1.1-3.5-2-3.5-2.1-0.1-0.1 0.3-1.2 0.8-2.4 0.6-1.2 2-4.4 3.1-7 1.2-2.6 2.2-4.7 2.4-4.8 0.2-0.1 5.2 2.3 11.1 5.2 5.9 2.9 10.8 5.3 10.9 5.2 0 0 0.3-0.8 0.7-1.7 0.5-1.2 0.6-1.7 0.3-1.9-0.1-0.1-1.3-0.8-2.6-1.5-1.2-0.6-2.3-1.3-2.4-1.5-0.1-0.1 0.1-0.7 0.4-1.2 1.1-1.9 13-17.5 13.3-17.5 0.6 0 10 5.6 10.2 6 0.1 0.4-2.5 4.5-5.4 8.3-1.1 1.4-2 2.7-2 2.9 0 0.3 1.7 1 2.3 1 0.2 0 1.2-1.2 2.3-2.8 1-1.6 2.4-3.5 3-4.3 2.7-3.6 5.1-8.2 6.7-12.6 0.4-1.1 0.8-1.7 1-1.7 0.5 0 3.8 2.2 6.2 4.2q6.9 5.6 7 6c0.1 0.2-1.6 2.1-3.6 4.3-3.6 3.8-5.8 6.6-7.3 9.6-1 2-1.4 3.2-1.8 5.9-0.3 1.3-0.7 3-1 3.6-0.7 1.7-2.7 4.5-3.1 4.5-0.2 0-1.5-0.7-2.9-1.5l-2.5-1.5-1.1 1.3c-0.7 0.7-1.2 1.5-1.2 1.6 0 0.2 1.2 1.1 2.6 2 1.5 0.9 2.8 1.7 2.8 1.8 0.3 0.5-9.9 14.3-10.6 14.3-0.2 0-0.9-0.4-1.6-0.9zm116.9-6.4c-1.5-2.8-3.3-5.9-3.9-7-0.6-1.1-1.1-2.1-1-2.2 0.2-0.5 13.4-7.6 14.2-7.6 0.2 0 1.4 1.7 2.7 3.7 1.3 2 3.4 5 4.6 6.8 1.2 1.8 2.1 3.4 2.1 3.5 0 0.1-1.7 1-3.7 2-2.1 1-5.6 2.7-7.8 3.8-2.3 1-4.2 1.9-4.3 1.9-0.1 0-1.5-2.2-2.9-4.9zm-164.1-4.6l-0.9-0.4-0.1-11v-10.9l2.2-4.6c1.3-2.5 2.4-4.6 2.5-4.6 0.3 0 9.3 4.2 9.6 4.5 0.3 0.2-0.7 2.6-6.7 16-4.8 10.7-5.2 11.5-5.5 11.5-0.1 0-0.6-0.2-1.1-0.5zm185.6-1c-0.2-0.2-1.1-1.6-1.9-2.9-0.8-1.3-2.6-4.2-4-6.3-1.5-2.4-2.4-4-2.2-4.1 0.3-0.4 14.3-7 15.5-7.4 0.8-0.3 1.1-0.3 1.2 0 0.3 0.5 0.4 17.5 0.1 17.9-0.2 0.2-1.8 0.9-3.8 1.7-2 0.7-3.8 1.3-4 1.4-0.3 0.1-0.6 0-0.9-0.3zm-11.8-18.6c-1.5-2.1-2.8-4-6.2-9.1l-2.8-4.2 0.7-0.5c0.4-0.3 2.1-1.8 3.8-3.3 3.9-3.5 9.2-7.8 9.5-7.8 0.2 0 1.9 1.6 3.9 3.4 3.9 3.9 7.5 7.2 9.9 9.4l1.6 1.5v1.6c0 1.7-0.3 2.7-0.8 2.7-0.4 0-11.1 4.7-14.7 6.5-1.7 0.8-3.2 1.4-3.4 1.4-0.2 0-0.9-0.7-1.5-1.6zm-145.5-5c-1.4-0.7-4.4-2.2-6.7-3.3-2.3-1.1-4.3-2.2-4.3-2.4-0.1-0.2 0.4-1.6 1.1-3.1 0.7-1.5 1.8-4 2.6-5.6 3.3-7.4 6.1-13.1 6.4-13.1 0.2 0 1.6 0.6 3 1.4 1.5 0.8 3.9 2.1 5.3 2.9 4.8 2.6 9.6 5.5 9.6 5.8 0 0.3-1 1.6-2.7 3.6-0.7 0.8-2.1 2.6-3.1 4-1 1.4-2.8 3.9-4 5.6-1.3 1.6-2.7 3.6-3.2 4.3-0.4 0.6-1 1.2-1.1 1.2-0.2 0-1.5-0.6-2.9-1.3zm61-3.8c-1.3-1.4-3.1-3.4-3.9-4.3-1.2-1.4-1.5-1.8-1.3-2.1 0.2-0.2 1.2-0.8 2.2-1.3 1.1-0.6 2.7-1.5 3.7-2 0.9-0.5 4.4-2.3 7.6-4 5-2.5 6-2.9 6.3-2.6 0.7 0.8 5.7 9.2 5.7 9.7 0 0.4-1 1-3.9 2.4-2.2 1.1-6.2 3.1-8.9 4.5-2.8 1.3-5.1 2.4-5.1 2.4-0.1 0-1.1-1.2-2.4-2.7zm-78.7-4.4c-5.4-2.6-5.4-2.5-5.2-3.2 0.3-0.9 6.5-14.1 6.8-14.4 0.1-0.1 0.6 0 1.2 0.4 0.6 0.4 2.6 1.6 4.5 2.6 2 1.1 3.6 2.1 3.6 2.3 0.1 0.1-1.1 2.9-2.5 6.1-1.5 3.2-2.9 6.4-3.2 7q-0.4 1-0.9 1c-0.2 0-2.2-0.8-4.3-1.8zm177.9-5.5c-7.6-7.2-8-7.7-7.5-8.1 0.9-0.9 7.4-6.5 8.9-7.7 0.8-0.7 2-1.8 2.6-2.3 0.6-0.6 1.3-1 1.4-0.9 0.4 0.2 0.4 24 0.1 24-0.1 0-2.6-2.3-5.5-5zm-29.1-2.8c-2.1-3.2-4.5-6.9-5.2-8.1-0.7-1.3-1.7-2.8-2.1-3.4-0.6-0.8-0.7-1.1-0.4-1.3 0.2-0.2 3-1.3 6.3-2.6l5.9-2.2 0.8 0.6c1.1 0.8 11.6 11 11.9 11.4q0.2 0.4-1.6 1.9c-6.4 5.4-11.3 9.5-11.5 9.6-0.1 0-1.9-2.6-4.1-5.9zm-48.9 3.2c-0.6-1.1-2-3.3-3-5.1-1.1-1.7-1.9-3.2-1.8-3.2 0.1-0.1 3.5-1.9 7.6-4.1 7.5-3.9 7.5-3.9 8-3.4 0.4 0.5 4.9 8 5.7 9.4 0.3 0.6 0.2 0.7-1.1 1.4-2.4 1.4-13.5 6.9-13.9 6.9-0.1 0-0.8-0.9-1.5-1.9zm-109.2 0.9c-2.6-1.3-2.3-0.2-2.3-11.2 0-7.7 0-9.8 0.3-9.7 0.4 0.1 6.7 3.6 9.3 5.1 1.1 0.6 1.9 1.3 1.8 1.5-0.1 0.7-7 15-7.3 15-0.2 0-1-0.3-1.8-0.7zm53.4-2.2c-1.8-1-3.8-2.2-4.5-2.5-0.8-0.4-1.9-1.1-2.6-1.6-0.6-0.4-2-1.2-3-1.8-1.1-0.5-2.5-1.3-3.3-1.8-1.5-0.8-5-2.7-8.6-4.7-3.3-1.8-4.4-2.4-4.4-2.7 0-0.3 2.9-6.9 3.2-7.2 0.1-0.1 2.9 1.1 6.5 2.7 6.3 3 6.3 3 6.7 2.4 0.3-0.3 0.8-1 1.3-1.6 0.5-0.6 0.9-1.1 0.8-1.1 0-0.1-1-0.5-2.2-1-5-2.2-11.2-5.4-11.2-5.8 0-0.5 1.3-4.2 1.6-4.6 0.1-0.1 1.4 0 2.9 0.3 4.4 0.9 6.7 1.3 11.2 2.1 2.3 0.3 5.6 0.9 7.3 1.1 1.6 0.3 4.6 0.8 6.5 1.2 1.8 0.3 3.5 0.6 3.6 0.7 0.2 0.1-0.2 2.2-0.8 4.7-0.6 2.4-1.3 5.3-1.5 6.4-0.8 3.7-1 4.4-1.5 4.8-0.3 0.2-0.8 0.9-1 1.5-0.5 1-0.5 1.2-0.2 1.3 0.6 0.2 0.5 1-0.3 3.5-1.6 4.5-2.1 5.6-2.8 5.6-0.3 0-2-0.9-3.7-1.9zm25.1 1.1c-1.2-1.3-6.5-5.4-10.1-8.1-1.8-1.2-3.3-2.4-3.3-2.5 0-0.4 1.9-9.4 2.6-12 0.3-1.4 1-4.5 1.6-6.9 0.5-2.3 1-4.3 1.2-4.4 0.1-0.1 1-0.1 2 0.1 3.9 0.4 8 0.7 9.2 0.7 2.2 0 2.7 0.3 2.7 1.5 0 2.5 2 21.6 2.6 25.1 0.2 1.3 0.3 2.5 0.3 2.7-0.1 0.1-1.1 0.8-2.2 1.5-1.2 0.6-2.7 1.6-3.5 2.1-0.8 0.6-1.6 1-1.9 1-0.2 0-0.8-0.4-1.2-0.8zm10.3-7.1c-0.4-2.1-1.1-10.2-0.9-10.5 0.3-0.3 17.5-1.3 18.4-1.1 0.6 0.2 2.5 2.6 2.5 3.3 0 0.3-1.9 1.5-6.2 3.7-1.8 1-5.3 2.8-7.9 4.2-2.5 1.4-4.8 2.5-5 2.5-0.3 0-0.5-0.6-0.9-2.1zm36-4.4c-1.6-2.7-2.9-5.1-3-5.4-0.1-0.5-0.7-0.1 9.5-5.6 3.7-2.1 6.9-3.7 7.1-3.7 0.4 0 1.3 1.4 5.5 8.2 0.8 1.2 1.4 2.3 1.3 2.4-0.1 0.3-16.8 9-17.2 9-0.2 0-1.6-2.2-3.2-4.9zm-105.9 1.3c-1.1-0.7-3.1-1.8-4.3-2.5-1.2-0.7-2.3-1.4-2.3-1.6-0.2-0.4 6.7-14.3 7.2-14.5 0.3-0.1 2.1 0.7 4.5 1.9 3.4 1.7 4.1 2.2 4.1 2.6 0 0.4-0.4 1.5-0.9 2.6-3.5 7.8-5.5 12.1-5.8 12.4-0.3 0.2-0.8 0.1-2.5-0.9zm155.1-3.1c-7.4-6.9-8.7-8.2-8.4-8.6 0.3-0.6 12-6.4 12.6-6.3 0.4 0 1 1.4 2.9 6.1 1.3 3.3 2.4 6.3 2.4 6.5 0 0.5-5.3 5.3-5.9 5.3-0.2 0-1.8-1.4-3.6-3zm-165.7-3.1c-0.8-0.5-3.6-2.1-6.1-3.6l-4.5-2.6v-4.7c0-5.3 0.3-6.9 1.8-9.1 0.7-1 0.9-1.2 1.4-1 0.6 0.2 9.3 4.1 13.9 6.2 1.3 0.6 2.4 1.3 2.4 1.5 0 0.6-6.6 14-7 14.2-0.1 0-1-0.3-1.9-0.9zm101.3-1.5c-0.6-0.9-1.3-1.8-1.6-2.2l-0.6-0.6-4.4 0.1c-2.4 0.1-6.7 0.4-9.6 0.5-2.8 0.2-5.3 0.3-5.6 0.2-0.3-0.1-0.4-0.8-0.6-2.3-0.1-1.2-0.3-3.2-0.5-4.6-0.2-1.3-0.4-3.2-0.4-4.1v-1.7l2 0.1c1.2 0.1 3.7 0.3 5.7 0.5l3.6 0.3 2.4-1c8.7-3.4 9.7-3.7 10.2-3.3 0.2 0.2 0.5 0.6 0.6 0.9 0.2 0.7 3 6.7 5.3 11.4 1.5 3.1 1.7 3.7 1.4 4-0.6 0.5-5.9 3.3-6.4 3.3-0.3 0-0.9-0.7-1.5-1.5zm74.1-2.3c-0.8-1.9-1.9-4.6-2.4-6-0.8-1.9-0.9-2.6-0.7-2.8 0.3-0.4 10.7-4.3 11.3-4.3 0.7 0 0.8 0.7 0.9 5.5l0.2 4.7-1.3 1.2c-2.3 2.1-6 5.2-6.4 5.2-0.1 0-0.9-1.6-1.6-3.5zm-38.1-2.4c-1.8-2.9-3.2-5.3-3.2-5.5 0-0.4 6.6-4.5 7.2-4.4 0.4 0 2.9 2.1 7.8 6.8 3.9 3.7 3.9 3.6 1.4 4.5-0.8 0.3-3.2 1.2-5.4 2.1-2.1 0.9-4 1.6-4.2 1.6-0.2 0-1.8-2.3-3.6-5.1zm-28.4-3.4c-4.3-8.7-5-10.5-4.9-10.9 0.1-0.3 7.5-3 10.6-3.7 1-0.3 2.5-0.4 4.7-0.3 1.7 0 3.2 0.1 3.2 0.2 0.1 0 0.9 1.6 1.9 3.4 1 1.8 2.3 4.1 2.8 5.1 0.6 1 1.1 1.9 1.1 2 0 0.2-2.9 1.9-8.4 4.8-1.4 0.8-3.9 2.1-5.4 3-1.5 0.8-2.9 1.5-3 1.5-0.1 0-1.3-2.3-2.6-5.1zm42.1-1c-2.1-1.9-4.6-4.2-5.5-5-0.9-0.8-1.6-1.7-1.6-1.9 0-0.4 10.1-6.9 10.9-6.9 0.3 0 2.8 0 5.5 0h5l0.5 1.2c1 2.1 3.5 8.7 3.5 9.1 0 0.3-1.9 1.4-6.7 3.6-3.6 1.8-6.8 3.2-7.2 3.3-0.4 0-1.6-0.9-4.4-3.4zm-130.6-1.9c-1.8-1.3-8.2-4.3-17.4-8.3-3.5-1.5-6.4-2.8-6.4-2.9-0.7-0.7 2.6-0.8 15.6-0.8 7 0.1 12.8 0.2 12.8 0.3 0.2 0.1-2.6 9.3-3.3 11.3-0.3 0.8-0.5 0.9-1.3 0.4zm34.8-0.6c-1.1-0.2-4.9-0.8-8.4-1.3-7-1.1-14-2.2-18-3-3.1-0.6-3.1-0.6-1.8-4.3 0.8-2.3 0.9-2.5 1.6-2.7 1.1-0.1 31.3-0.1 31.5 0.1 0.2 0.2-2.3 11.4-2.6 11.5-0.2 0-1.2-0.1-2.3-0.3zm115.8-2c-0.3-0.6-3-7.3-3.5-8.8-0.1-0.5 0.1-0.5 4.9-0.4l5 0.1 1.7 0.9c1.9 0.9 4.2 3.1 4.2 4 0 0.6 0 0.6-5.7 2.7-6.1 2.3-6.1 2.2-6.6 1.5zm-39.9-1.1c-0.6-1-2.9-5.1-3.7-6.5-0.4-0.8-0.7-1.5-0.6-1.5 0.1-0.2 18.9-0.3 19.2-0.1 0.3 0.1-1.4 1.2-9.8 6-4.8 2.8-4.7 2.8-5.1 2.1zm-47.8-1.3c-1.8-0.1-3.8-0.3-4.4-0.4-1.2-0.3-1.4-0.6-1.4-4.1 0-1.9 0-2.3 0.4-2.5 0.6-0.2 30.7-0.1 31.1 0.2q0.3 0.2-0.3 0.3c-3.6 1.1-10.1 3.2-14.3 4.8-5.7 2.2-5.2 2.1-11.1 1.7zm-12.6-1c-1.1-0.1-3.4-0.4-5.1-0.6-3.4-0.3-3.3-0.2-2.5-3.4 0.2-1.2 0.5-1.9 0.8-2 0.9-0.2 11.2 0 11.4 0.3 0.2 0.1 0.3 1.5 0.4 3v2.8h-1.4c-0.8 0.1-2.4 0-3.6-0.1z"/><path class="d" d="m9 140c-0.7-0.2-1.7-0.5-2.4-0.8-1.7-0.9-4.1-3.4-5-5.4-0.7-1.5-0.8-1.9-0.8-4.4 0-2.7 0-2.7 1-4l0.9-1.3 0.7 0.4c0.4 0.3 1.2 0.8 1.8 1.1 0.6 0.3 3 1.7 5.3 3.2 2.4 1.4 6.1 3.6 8.2 4.9 4.7 2.9 7.5 4.7 7.5 4.9 0 0.1-0.2 0.5-0.5 0.8l-0.6 0.7h-7.4c-4.1 0-8 0-8.7-0.1zm20.6 0c-0.5-0.2-0.1-0.8 3.2-4.7 1.1-1.2 2.2-2.5 2.5-2.8 0.4-0.5 0.5-0.5 0.9-0.2 0.3 0.2 0.6 0.5 0.7 0.7 0.2 0.2 1.5 1.3 2.9 2.4 3.1 2.6 5.2 4.5 5.2 4.7 0 0.2-14.8 0.1-15.4-0.1zm21.6 0c-0.5-0.1-1.8-1-3.3-2.3-4.4-3.8-6.2-5.3-8-6.7-1-0.8-1.8-1.6-1.8-1.8 0-0.3 0.7-1.3 2.7-3.7 1.7-2.3 4-5.4 4-5.6 0-0.3-1.5-0.8-2.1-0.8-0.3 0-0.7 0.4-1.1 0.8-0.3 0.5-1.3 1.8-2.2 3-0.9 1.2-1.9 2.6-2.4 3.2-0.4 0.7-0.9 1.2-1.1 1.2-0.2 0-4-3-4.6-3.8-0.3-0.2-1.2-1-2.1-1.7-0.9-0.7-2.3-1.8-3.1-2.4l-1.4-1.2 1.1-1.3c2.9-3.5 7.6-9 8.7-10.1l1.3-1.4 0.6 0.8c0.8 0.9 1.1 0.7 1.9-0.9 0.5-1.1 0.5-1.1 0-1.5-1.6-1-2.8-2.2-6.8-6.3-2.5-2.5-4.5-4.6-4.5-4.8 0-0.1 0.8-1.2 1.7-2.3 0.9-1.1 2.5-3 3.5-4.4 1-1.3 1.9-2.4 2.1-2.4q0.3 0 6 3.9c0.3 0.2 2.2 1.5 4.2 2.8 2 1.3 3.9 2.6 4.2 2.9 0.4 0.4 0.9 0.8 1.2 1 0.4 0.2 1.6 1 2.7 1.8 1.1 0.8 2.9 2.1 4 2.8 1 0.7 1.9 1.3 1.9 1.4 0 0.1-0.7 1.2-1.6 2.3l-1.5 2.1 0.4 0.9c0.7 1.9 0.9 1.9 2.8-0.8 1-1.4 1.9-2.6 2-2.7 0.3-0.2 3.8 2.1 5.8 3.8 1.3 1.1 2.9 2.1 7.5 5.3 1.7 1.2 3.2 2.2 3.3 2.4 0.1 0.2-0.3 0.8-0.7 1.5-0.9 1.3-3.1 4.5-5.6 8.1-0.7 1.2-1.5 2.2-1.7 2.2-0.2 0.1-2.3-1-4.7-2.3-6.6-3.9-10.1-5.8-10.6-5.8-0.4 0-2 1.4-1.9 1.6 0.1 0.1 1.3 0.8 2.6 1.6 1.4 0.8 3.6 2.1 5 2.9 1.4 0.8 3 1.8 3.7 2.2 3 1.6 4.2 2.4 4.2 2.5 0 0-1.4 2.2-3.2 4.8-1.7 2.5-3.6 5.2-4 5.9-0.5 0.7-1.1 1.3-1.4 1.4-0.7 0.2-6.6 0.1-7.7-0.1zm11.4 0c-0.1-0.2 0-0.3 0.2-0.4 0.1-0.1 1.3-1.8 2.6-3.7 3.7-5.4 4.4-6.4 4.8-6.4 0.2 0.1 0.9 0.4 1.6 0.8 0.6 0.5 2.2 1.4 3.4 2.1 5.4 3.2 12.4 7.4 12.4 7.6 0 0.3-24.8 0.2-25 0zm34.7 0c-0.6-0.1-1-0.3-0.8-0.4 0.2-0.1 1.4-1.7 2.8-3.6 1.5-2.2 2.5-3.4 2.7-3.3 0.2 0.1 1.4 1 2.8 2 1.3 0.9 2.7 1.9 3 2.1 1.7 1.1 4.2 3 4.2 3.1 0 0.2-13.2 0.3-14.7 0.1zm17.4-1.6c-1.3-0.9-4.2-3.1-6.6-4.8-2.3-1.7-4.2-3.1-4.3-3.3 0-0.2 2.7-4.1 6.7-9.3 0.8-1.1 1.7-1.9 1.9-1.9 0.2 0.1 3 2.7 6.4 5.9 3.3 3.3 7.7 7.3 9.7 9.1 2 1.8 3.8 3.5 3.9 3.7 0.2 0.3-0.6 1.5-1.5 2.2-0.1 0.1-3.3 0.2-7 0.2h-6.8zm25.2-0.4c-1.4-1.1-2.5-2.2-2.5-2.4-0.1-0.2 1.1-1.9 2.6-3.8 4.3-5.4 7.7-9.8 7.7-10 0-0.2-0.5-0.3-1-0.3-0.9 0-1.1 0.2-2.7 2.2-4.5 5.7-8.3 10.3-8.7 10.5-0.3 0.2-3.1-2.2-9.9-8.5-6.9-6.5-10.8-10.4-10.8-10.7 0-0.7 14-16.3 14.7-16.3 0.3 0 6.4 5.5 8 7.3l0.8 1 1.1-1.1c1.9-1.8 1.9-1.7-0.8-4.3-5.1-4.8-5.8-5.5-5.8-5.8 0-0.2 2.3-2.5 5.7-5.6 1.3-1.3 3.8-3.4 6.7-5.7 1.6-1.3 2-1.9 1-1.6-0.3 0.1-2 0.3-3.9 0.4-3.2 0.2-3.4 0.2-4.2 1-2.4 2-4.1 3.6-6.4 5.7l-2.6 2.3-5.9-5.9c-3.3-3.3-6-6.1-6-6.2 0-0.1 0.4-0.4 0.8-0.7 1.7-0.8 5.1-2.7 5.8-3.2 1-0.6 1-0.9-0.1-2.1l-0.8-1-2 1.1c-1.1 0.6-3 1.7-4.2 2.3l-2.2 1.2-0.7-0.6c-0.5-0.3-1.4-1.2-2.1-2.1-0.7-0.8-2.2-2.4-3.2-3.5-1.1-1.1-2.1-2.3-2.3-2.5-0.1-0.3-0.5-0.7-0.9-1-0.3-0.2-0.8-0.8-1-1.2-0.2-0.4-0.6-0.8-0.8-0.8-0.5 0-2.7 1.1-3.5 1.8l-0.7 0.5 1.4 1.6c0.7 0.8 1.9 2.2 2.7 2.9 0.7 0.8 1.3 1.5 1.3 1.6 0 0.3-2.3 3.3-4 5.2l-1 1.1-1.4-0.8c-0.7-0.4-2.4-1.3-3.6-2.1-2.1-1.2-2.2-1.3-2.6-0.8-0.9 1.3-0.5 1.8 3.9 4.4 0.9 0.6 1.8 1.1 1.8 1.2 0.2 0.1-3.3 4.6-4 5.2-0.3 0.2 0.7 1.7 1.5 2.1 0.4 0.2 0.6 0.2 0.6 0 0.1-0.2 1.1-1.4 2.2-2.8 1.2-1.3 3.6-4.2 5.3-6.3 1.8-2.1 3.4-3.8 3.6-3.8 0.2 0 1.7 1.5 3.4 3.2 1.7 1.8 3.9 4.1 5 5 1 1 3.9 3.8 6.3 6.2l4.4 4.3-4.6 5.1c-2.6 2.8-5.4 6-6.4 7.2-0.9 1.1-2 2.5-2.5 3.1l-0.8 1-0.8-0.8c-0.5-0.4-1.7-1.4-2.7-2.2-1-0.8-3.3-2.8-5.1-4.3-4-3.7-6.1-5.4-6.2-5.4-0.1 0-0.7 0.8-1.4 1.7l-1.2 1.8 1.3 1.1c2.8 2.4 6.1 5.4 8.6 7.6 1.5 1.4 3.1 2.8 3.5 3.3l0.9 0.7-0.9 1.3c-0.5 0.8-1.2 1.7-1.4 2-0.3 0.4-1.2 1.6-2.1 2.7-0.9 1.1-2.1 2.8-2.7 3.6-0.6 0.9-1.3 1.7-1.5 1.7-0.4 0-1.3-0.7-5.2-3.6-2.1-1.6-6.9-5.2-8.1-6-0.6-0.4-1.6-1.2-2.3-1.7-0.6-0.6-1.6-1.4-2.2-1.9l-1.1-0.9 1.1-1.5c0.5-0.8 1.6-2.4 2.3-3.4l1.3-2-0.9-0.3c-1-0.5-2-0.5-2-0.2 0 0.5-3.6 5.6-4 5.6-0.2 0-5.7-3.8-9.7-6.8-1.5-1.1-3.2-2.4-3.7-2.7-0.6-0.4-1.4-1.1-2-1.5l-0.9-0.8 2.2-2.9c2.9-3.7 3.4-4.4 5.9-7.9 1.1-1.5 2.2-2.8 2.3-2.8 0.3 0 5.1 3.7 5.5 4.2 0.4 0.5 0.4 0.5 1.6-0.6 0.6-0.6 1.5-1.4 1.9-1.7l0.7-0.6-1.5-1.2c-0.9-0.6-2.2-1.7-3-2.3-0.8-0.7-2.1-1.6-2.8-2.1-0.7-0.5-2.8-2-4.7-3.4-1.8-1.4-3.7-2.7-4.1-2.9-0.5-0.3-0.9-0.6-0.9-0.7 0-0.1 0.6-1.1 1.2-2.2 0.7-1.1 1.4-2.6 1.6-3.3 0.3-0.7 0.5-1.5 0.6-1.7q0.1-0.4 0.4-0.1c0.2 0.2 3 1.6 6.2 3.3 3.2 1.6 5.9 3 6 3.1 0.2 0.1 1.3 0.7 2.4 1.3 1.2 0.7 2.4 1.4 2.8 1.7 0.6 0.6 0.6 0.6 1.5-0.9 0.7-1.4 1.8-0.7-12.1-8-3-1.6-5.6-2.9-5.9-3-0.5-0.2-0.5-0.6 0-2.5 0.9-2.9 3.9-7.2 8.4-11.6 3-2.9 3-3 3.7-2.6 0.6 0.5 3.7 3.9 5.7 6.3 1.1 1.3 3.1 3.7 5.5 6.5 0.5 0.6 1.4 1.8 2 2.6 0.6 0.9 1.1 1.7 1.2 1.7 0 0.1 2.8-1.4 3.7-2 0.3-0.2-0.3-1.1-2.4-3.8-1.6-2-2.8-3.8-2.7-3.9 0.2-0.3 2.6-1.6 10.6-5.6l6.4-3.1 0.9 1.6c0.4 0.9 1 1.8 1.1 2 0.2 0.3 1.2 1.9 2.2 3.6 2.2 3.7 2.6 4.3 2.9 4.1 0.1-0.1 0.3-0.8 0.4-1.6l0.3-1.5-2.7-4.6c-2.5-4.3-2.7-4.6-2.2-4.9 0.3-0.2 2.4-1.4 4.8-2.6 2.4-1.2 5.6-2.8 7-3.5 1.4-0.8 2.7-1.3 2.8-1.3 0.2 0.1 0.7 0.9 1.2 1.8 0.7 1 1.2 1.5 1.5 1.5 0.5 0 2.1-0.6 2.1-0.9 0 0-0.6-0.9-1.2-1.9-1.1-1.4-1.2-1.8-0.9-2 1.1-0.7 7.9-4.2 11.9-6.3 4.3-2.3 4.6-2.4 5-1.9 0.9 1.3 3.3 5 3.5 5.5 0.1 0.3 0.9 1.4 1.7 2.5 2 2.9 6.8 10.4 6.7 10.5-0.5 0.4-2 0.9-2.3 0.8-0.2-0.1-0.3 0-0.3 0.1 0 0.5 1.6 3.2 1.8 3.2 0.2 0 0.7-0.3 1.2-0.7 1.2-0.8 1.6-0.8 1.8-0.2 0.1 0.2 2 3.1 4.3 6.5 2.3 3.5 4.2 6.4 4.2 6.6 0.2 0.3-2.6 1.8-8.8 4.8-0.9 0.5-1.2 0.9-1.9 2.2-0.4 0.9-1.3 2.5-2.1 3.7-0.7 1.1-1.3 2.1-1.3 2.2 0 0.1 0.2 0.3 0.5 0.3 0.3 0.1 1.1 1.4 2.3 3.6 1 1.8 2.5 4.8 3.4 6.4 1.8 3.2 2 3.9 1.3 4.2-0.3 0.1-1.8 0.9-3.3 1.8-1.5 0.9-4.6 2.7-6.7 4-2.2 1.2-4.9 3-6 3.8-1.1 0.8-2.1 1.5-2.2 1.6-0.5 0.3 0 0.6 1.7 0.9 1 0.2 2 0.4 2.4 0.5l0.6 0.2-0.6-0.5c-0.7-0.6-0.7-0.6-0.2-1 1-0.7 10.1-6.1 12.7-7.5 1.5-0.8 2.8-1.5 3-1.7 0.3-0.2 0.9-0.1 0.9 0.3 0 0.2 1.1 2 2.4 4.2 3.5 5.7 4.6 7.5 5.1 8.5l0.5 0.9-0.9 0.7c-0.5 0.4-1.1 0.9-1.5 1.1-0.3 0.2-2.2 1.6-4.2 3.2-2 1.5-3.9 2.9-4.2 3.1-0.3 0.3-1.9 1.5-3.6 2.7l-3.2 2.4-1.4-1.5-1.5-1.5-1.5 1.7c-0.8 0.9-1.5 1.7-1.5 1.8 0 0.2 1.7 1.7 8.2 7.8 1.5 1.4 2.8 2.7 2.7 2.9 0 0.2-1.6 2.1-3.6 4.2-1.9 2.1-3.6 4.1-3.9 4.5-0.4 0.6-0.5 0.6-6.9 0.6h-6.6zm4.6-69.9c1.1-0.4 1.7-1.7 1.6-3.3 0-0.6 0-1.1 0.1-1.2 0.1-0.1 1 0.5 2 1.3 2.3 1.8 3.4 2.6 3.7 2.6 0.2 0 0.3-1.9 0.3-6 0-4.9 0-6-0.3-6-0.5 0-3.3 1.9-4.3 2.9q-1.4 1.6-1.5 0.1c0-1-0.9-2.9-1.6-3.3-0.7-0.4-10.9-0.5-12.2-0.1-1.3 0.3-1.5 1.4-1.5 6.6 0 4.7 0.2 5.9 1 6.5 0.7 0.5 11.4 0.4 12.7-0.1zm15.5 71.8c0.1-0.5 5.6-6.5 5.9-6.5 0.2-0.1 6.7 6.2 6.9 6.6 0.1 0-2.8 0.1-6.4 0.1-4.6 0.1-6.5 0-6.4-0.2zm20.2 0.1c-0.8-0.2-1.8-1-6-5.1-2.8-2.7-5-5.1-5-5.3 0-0.4 2.1-2.9 5.1-6.1 1.4-1.3 3.3-3.4 4.4-4.6 3.3-3.5 2.8-3.3 4.1-1.9 0.7 0.7 2.2 2.6 3.5 4.2 1.3 1.6 3.8 4.7 5.7 6.9 1.8 2.2 3.4 4.2 3.4 4.3 0 0.7-1.7 3.7-2.7 4.7-0.5 0.7-1.8 1.6-2.8 2.1-1.7 0.8-1.9 0.9-5.2 0.9-1.9 0-3.9 0-4.5-0.1zm-90.7-2.2c-0.9-0.5-2.6-1.5-3.6-2.1-2.5-1.5-3.2-1.9-8.8-5.3-2.6-1.5-4.8-2.9-5.1-3.1-0.4-0.3-0.2-0.6 1.8-3.7 4.9-7.2 5.7-8.3 6-8.1 0.2 0.1 1.5 1.1 3 2.2 1.4 1.1 3.8 2.9 5.1 3.9 2.8 1.9 10.4 7.8 10.4 7.9 0 0.1-0.7 1.1-1.6 2.3-0.8 1.2-1.8 2.6-2.2 3.2-0.5 0.6-1.1 1.4-1.4 1.8-0.3 0.3-0.7 1-0.9 1.4-0.2 0.4-0.5 0.7-0.7 0.7-0.1 0-1-0.5-2-1.1zm-64.7-3.4c-1.6-1-4.3-2.7-6-3.8-6.9-4-13.3-8-14.2-8.6-0.1-0.1 3.1-4.3 6.3-8.3l0.5-0.8 1.2 0.8c2.3 1.4 10.4 7.6 14.3 10.9 2.2 1.8 4.4 3.6 4.9 4 1.6 1.3 1.7 1.5 0.7 2.9-2 2.7-3.7 4.6-4.2 4.7-0.3 0-1.9-0.8-3.5-1.8zm168.4-8.9c-1.2-1.5-2.7-3.3-3.3-4.1-0.6-0.8-2.3-2.8-3.7-4.6-1.3-1.7-2.5-3.2-2.5-3.2 0-0.2 11.5-12.3 11.7-12.3 0.2 0 0.4 26.7 0.2 26.9-0.1 0-1.1-1.2-2.4-2.7zm-30.2-1.3c-1.5-1.5-2.8-2.8-2.8-2.9 0-0.1 0.9-0.8 2-1.6 1.2-0.8 3.3-2.4 4.9-3.6 6.3-4.8 9.7-7.4 9.9-7.4 0.2 0 2.3 3.2 2.6 4.1q0.2 0.4-1.1 1.7c-0.7 0.7-2.1 2.2-3.1 3.2-6.1 6.6-8.8 9.3-9.1 9.3-0.2 0-1.7-1.3-3.3-2.8zm-162.1-10.5c0-3.8 0.1-6.8 0.1-6.8 0.4 0 6.3 3.1 7.3 3.8 0 0.1-0.7 1.2-1.7 2.4-1 1.3-2.1 2.7-2.4 3.1-0.3 0.3-1 1.4-1.7 2.2-0.6 0.9-1.3 1.7-1.4 1.8-0.1 0.2-0.2-2.7-0.2-6.5zm20.5 1.9c-0.7-0.6-2.6-2-4.1-3.2-1.6-1.1-3-2.2-3.1-2.4-0.4-0.4 1.9-3.7 7.7-11.1l3.2-4 4.3 4.4c4.9 5.1 4.6 4.2 2.3 6.8-0.6 0.7-2.1 2.5-3.4 4.1-1.3 1.5-2.5 2.9-2.7 3-0.1 0.1-0.8 0.8-1.4 1.7-0.6 0.8-1.2 1.6-1.3 1.6-0.1 0.1-0.8-0.4-1.5-0.9zm159.9-4.9c-0.7-1-2.3-3.5-3.5-5.8-0.7-1.3-2.2-3.9-3.3-5.8-3.1-5.2-4.3-7.3-4.4-7.8-0.1-0.3 1.3-1.1 6.6-3.7 3.6-1.8 7.1-3.4 7.8-3.6 1.4-0.6 0.9-1.1 5.8 6.7 0.4 0.6 1.5 2.3 2.4 3.7 0.9 1.5 1.6 2.9 1.6 3.1-0.1 0.2-2.7 3.1-5.9 6.5-3.2 3.4-6 6.4-6.3 6.7-0.4 0.4-0.4 0.4-0.8 0zm-173.8-5c-1.6-0.9-3.7-2.1-4.7-2.6l-1.9-1v-6c0-5.8 0-6 0.7-7.6 1.4-3.3 2.3-5.2 2.6-5.2 0.4 0 17.6 9.4 17.6 9.6 0 0.1-2.1 2.9-4.6 6.1-2.5 3.2-4.9 6.4-5.5 7.1-0.5 0.7-1 1.3-1.1 1.3-0.2 0-1.6-0.8-3.1-1.7zm51.4-8.8c-3-1.9-5.9-4.1-5.9-4.4 0-0.2 1.4-2.1 3.1-4.3 1.7-2.2 3.8-5 4.7-6.4 1-1.3 1.9-2.5 2.1-2.7 0.3-0.3 1.1 0.1 4.1 2.1 2.3 1.5 3.7 2.6 3.6 2.8-0.1 0.3-1.2 1.8-5.1 7.2-1 1.3-2.5 3.3-3.3 4.5-0.9 1.2-1.7 2.2-1.8 2.2 0 0-0.8-0.4-1.5-1zm-40.7-8.6c-2.7-1.5-6.9-3.8-9.2-5-4.1-2.1-4.2-2.2-4-2.9 0.1-0.8 4.2-10 4.7-10.7 0.4-0.5 0.7-0.4 10 4.9 2.2 1.3 5.7 3.3 7.8 4.4 2 1.1 3.7 2.2 3.7 2.4 0.1 0.1-1.2 2-2.9 4.2-3.5 4.4-4.4 5.4-4.8 5.4-0.1 0-2.5-1.2-5.3-2.7zm30.9 1.8c-0.7-0.4-2.2-1.5-3.4-2.3-1.1-0.8-2.5-1.7-3-2.1-1.4-0.8-5.2-3.6-6-4.2l-0.6-0.4 1-1.2c0.5-0.7 1.7-2.2 2.6-3.3 0.9-1.2 1.9-2.4 2.3-2.8 0.6-0.6 0.6-0.7 0.3-1.3-0.2-0.4-0.8-1.2-1.3-1.7-0.9-1-1-1-1.2-0.6-0.4 0.5-5.5 7.1-6.5 8.3l-0.8 0.8-3.4-1.9c-1.9-1-4.4-2.4-5.6-3.1-4.6-2.6-8.3-4.7-10.1-5.7-1.1-0.6-2-1.2-2.1-1.4-0.1-0.2 0.3-1.2 0.8-2.2 0.5-1.1 1.7-3.6 2.6-5.7 2-4.7 2.6-5.9 2.8-5.8 0.1 0.1 1.9 1 4 2 7.7 3.7 13.7 6.6 15.6 7.7 1.9 1 1.9 1 2.2 0.5 0.1-0.4 0.4-1.2 0.7-1.9 0.3-0.7 0.6-1.5 0.6-1.7 0-0.3-0.9-0.9-2.4-1.6-3.2-1.6-3-1.4-2.5-2.3 0.9-1.5 4.4-6.2 9.4-12.6 1.5-2.1 2.9-4 3.2-4.3 0.2-0.4 0.4-0.7 0.6-0.7 0.3 0 9.6 5.5 9.8 5.8 0.2 0.3-2.9 5-5.8 8.8-0.9 1.2-1.6 2.3-1.6 2.4 0.2 0.2 2.5 1.3 2.9 1.3 0.1 0 1.2-1.4 2.4-3.1 1.1-1.7 2.6-3.8 3.3-4.8 2.9-4 5.9-9.7 6.5-12.4 0.1-0.5 0.3-1 0.4-1.1 0.4-0.2 3.5 2 7.9 5.5 4.1 3.3 5.2 4.3 5 4.7 0 0.2-1.2 1.5-2.6 2.9-6.3 6.4-9.2 11.3-10.1 16.7-0.1 1.3-0.6 2.9-0.9 3.6-0.8 1.6-2.5 4.1-2.8 4.1-0.1 0-1.3-0.6-2.6-1.4-1.3-0.8-2.5-1.5-2.6-1.5-0.3 0-2.7 3-2.7 3.4 0 0.1 1.1 0.9 2.5 1.8 1.4 0.8 2.6 1.6 2.7 1.8 0.1 0.2-0.3 1-0.9 1.8-1.4 2-7.6 10.2-8.4 11.2l-0.8 0.9zm145.2-1.1c-1-1.9-2.6-4.4-4.2-6.8l-1.1-1.7 0.7-0.3c1.3-0.6 5.6-2.2 5.7-2.2 0.1 0 0.2 2.9 0.2 6.4 0 3.4-0.1 6.3-0.2 6.3-0.1 0-0.6-0.7-1.1-1.7zm-26.1-1c-0.2-0.3-0.4-0.7-0.4-0.8 0-0.1-1-2.1-2.3-4.4-3-5.2-4.4-8-4.3-8.1 0.8-0.7 13.3-7.3 13.8-7.3 0.1 0 1.1 1.5 2.4 3.4 1.2 1.8 3.2 4.9 4.5 6.8 1.2 1.9 2.2 3.5 2.1 3.6-0.1 0.1-2.4 1.2-5.1 2.5-2.7 1.2-6 2.9-7.4 3.6-1.4 0.7-2.6 1.3-2.7 1.3-0.1 0-0.4-0.3-0.6-0.6zm-166.7-9.1c-0.6-0.4-0.6-0.4-0.6-11v-10.7l1.9-4c1.1-2.2 2-4.1 2-4.2 0-1 0.6-0.9 5.1 1.2 2.6 1.2 4.7 2.3 4.7 2.4 0 0.4-3.1 7.7-6.1 14.2-0.1 0.2-1.2 2.7-2.4 5.4-1.2 2.7-2.4 5.4-2.6 6-0.6 1.2-1.1 1.4-2 0.7zm184.9-2c-0.5-0.9-2.4-3.8-4.1-6.4-1.7-2.6-3.1-5-3.1-5.2 0-0.4 14.5-7.5 16-7.7 0.5-0.1 0.5 0.1 0.5 9v9.1l-3.7 1.4c-2 0.8-3.9 1.4-4.1 1.4-0.3 0-0.9-0.6-1.5-1.6zm-11.3-18.2c-6.2-9.1-8.1-12-8-12.2 0-0.1 0.7-0.8 1.6-1.5 0.8-0.7 2.8-2.4 4.3-3.8 3.9-3.3 7.2-6.1 7.4-6.1 0.2 0 2 1.7 4.1 3.8 2.1 2 5.5 5.2 7.5 7l3.6 3.4v1.6c0 1.8-0.1 1.9-1.7 2.6-1.2 0.4-2.1 0.8-7.2 3.2-1.8 0.8-3.3 1.5-3.5 1.5-0.1 0-1.5 0.6-3.1 1.4-1.6 0.8-3 1.5-3.2 1.5-0.1 0-0.9-1.1-1.8-2.4zm-144.5-4.1c-4.1-2-10.8-5.2-11-5.2-0.6 0-0.3-0.9 1.5-4.9 3.2-7.4 7.6-16.7 7.9-17 0.1-0.1 2.6 1.2 6.3 3.3 1.1 0.6 2.1 1.2 2.2 1.2 0 0 1.6 0.9 3.4 1.9 1.8 1.1 3.8 2.3 4.4 2.5 0.6 0.3 1.1 0.7 1.2 0.8 0.1 0.2-0.4 0.9-1 1.7-2.2 2.7-3.5 4.4-4.9 6.3-0.7 1.1-2.3 3.2-3.4 4.7-1.2 1.5-2.5 3.3-3.1 4.1-0.5 0.9-1.2 1.5-1.3 1.5-0.2 0-1.2-0.4-2.2-0.9zm60-4.4c-1.5-1.7-3.1-3.5-3.6-4.1-0.5-0.6-0.9-1.1-0.9-1.2 0-0.2 0.3-0.4 0.7-0.7 0.4-0.2 2-1 3.5-1.9 3.7-2 14.9-7.7 14.9-7.6 0.5 0.5 5.7 9.3 5.7 9.6 0 0.2-1.9 1.2-4.1 2.4-2.3 1.1-6.2 3-8.6 4.2-2.5 1.2-4.6 2.2-4.7 2.2-0.2 0-1.5-1.3-2.9-2.9zm-78.7-4.2c-2.3-1.1-4.3-2.1-4.4-2.3-0.1-0.1 0.8-2.5 2.6-6.3 1.6-3.4 3.1-6.5 3.3-7.1 0.4-1.1 0.8-1.2 1.6-0.6 0.3 0.2 1.7 1 3.2 1.9 1.4 0.8 3.1 1.8 3.7 2.1l1.1 0.6-2.5 5.6c-1.5 3-2.8 6.1-3.1 6.8-0.3 0.9-0.7 1.4-0.9 1.4-0.2 0-2.3-1-4.6-2.1zm183.1-0.7c-0.2-0.3-1.2-1.3-2.2-2.2-3.3-3-9.9-9.6-9.9-9.8 0-0.3 1.2-1.3 5.7-5.2 1.8-1.6 4.1-3.5 4.9-4.3 0.9-0.7 1.7-1.4 1.8-1.4 0.2 0 0.3 5.3 0.3 11.7 0 6.4-0.1 11.6-0.1 11.6-0.1 0-0.3-0.2-0.5-0.4zm-30.9-3c-0.5-0.8-2.4-3.6-4.1-6.2-3.3-5-6.3-9.9-6.4-10.4-0.1-0.2 0-0.4 0.2-0.4 0.3 0 6.3-2.2 9.1-3.4 1-0.4 2.1-0.8 2.4-0.8 0.5 0 1.3 0.7 7.9 7.1 4.1 3.9 4.7 4.6 4.4 5-0.2 0.2-2.1 1.8-4.2 3.6-2.1 1.8-4.6 3.9-5.5 4.6-0.8 0.8-1.8 1.7-2.2 1.9l-0.7 0.5zm-51.9-1.5c-2.3-3.7-4.4-7.3-4.4-7.5 0-0.1 1.7-1.1 3.7-2.2 2.1-1 4.6-2.3 5.5-2.8 1-0.5 2.6-1.4 3.6-1.9l1.8-0.9 0.5 0.6c0.3 0.4 0.8 1.2 1.2 1.8 0.4 0.7 1.5 2.6 2.5 4.3 1 1.6 1.8 3.1 1.7 3.3-0.1 0.2-14.1 7.5-14.5 7.5-0.1 0-0.8-1-1.6-2.2zm-109.5 1l-1.8-0.9v-9.5c0-5.2 0.1-9.5 0.2-9.5 0.1 0 2.6 1.3 5.5 2.9 0.4 0.2 1.7 0.9 2.8 1.6 1.1 0.6 2.1 1.2 2.2 1.3 0.1 0.2-0.6 2-1.6 4-2.7 5.8-3.4 7.3-4.3 9.3-0.5 1-0.9 1.8-1 1.8-0.1 0-1-0.5-2-1zm55.2-1.2c-1-0.6-3.2-1.8-4.8-2.6-1.6-0.9-3.4-2-3.9-2.5-0.6-0.5-1.8-1.2-2.6-1.5-1.3-0.6-4.8-2.5-8.7-4.7-0.9-0.6-3-1.7-4.6-2.5-1.6-0.9-3-1.6-3-1.7-0.3-0.2 3.1-7.3 3.3-7.1 0.4 0.2 7 3.3 7.1 3.3 0.1 0 1.2 0.6 2.6 1.2 1.3 0.7 2.5 1.2 2.6 1.2 0.1-0.1 0.8-0.9 1.5-1.9 1.6-2.1 1.6-2-0.6-2.8-0.7-0.3-2.5-1.1-3.8-1.7-1.4-0.7-3.7-1.7-5.1-2.4-1.5-0.7-2.6-1.3-2.6-1.4 0-0.2 1.3-4.1 1.5-4.5 0-0.1 1.1 0.1 2.5 0.4 3.9 0.8 8 1.6 11.9 2.1 5.3 0.9 13.8 2.3 16.1 2.8 0.7 0.2 0.7 0.3-0.8 6.6-0.6 2.5-1.2 5-1.2 5.5-0.1 0.6-0.3 1-0.4 1-0.1 0-0.3 0.5-0.3 1-0.1 0.6-0.5 1.6-0.9 2.2-0.3 0.7-0.8 1.6-1 2.2-0.4 0.8-0.4 0.9 0 0.8 0.6-0.2 0.4 1-0.7 4.1-1.2 3.4-1.5 4-1.9 4-0.2 0-1.2-0.5-2.2-1.1zm24.1 0.5c-1.1-1.1-8-6.5-11.9-9.2-0.9-0.6-1.6-1.1-1.7-1.2-0.1-0.1 1.7-8.4 3.3-15 0.3-1.5 0.9-3.9 1.2-5.4l0.6-2.8 1.6 0.2c0.9 0.1 2.3 0.2 3.1 0.3 3 0.2 8.5 0.7 8.7 0.8 0.1 0.1 0.3 1.5 0.4 3.2 0.1 1.7 0.4 5.4 0.7 8.3 0.2 2.8 0.6 6.5 0.7 8.1 0.2 1.6 0.5 3.8 0.7 4.9 0.2 1.2 0.4 2.6 0.4 3.2 0 0.9-0.1 1.1-1.2 1.7-0.7 0.4-2.3 1.4-3.5 2.1-1.2 0.8-2.3 1.4-2.4 1.4-0.2 0-0.5-0.2-0.7-0.6zm10.2-6.6c-0.4-1.9-0.8-5.2-1-8.2l-0.1-2.5 1.7-0.2c0.9-0.1 4.1-0.2 7-0.4 3-0.2 6.3-0.3 7.3-0.4 1-0.1 2 0 2.3 0.1 0.6 0.4 2.1 2.7 1.9 3-0.2 0.3-18.3 10-18.7 10 0 0-0.2-0.6-0.4-1.4zm35.7-5.2c-2.7-4.7-3.1-5.6-2.3-5.6 0.1 0 0.4-0.1 0.7-0.3 0.2-0.2 1.4-0.9 2.6-1.6 4-2.1 6.5-3.4 9.3-5 1.6-0.8 3-1.5 3.1-1.5 0.3 0 1.3 1.5 4.6 6.9l2.1 3.4-1.2 0.5c-1.2 0.7-5.4 2.8-11.5 6.1-2.3 1.1-4.3 2.1-4.3 2.1-0.1 0-1.5-2.3-3.1-5zm-106.7 0.9c-1.3-0.8-3-1.8-3.6-2.1-2.3-1.2-2.3-1.1-1.4-2.9 0.4-0.9 1.9-3.9 3.3-6.8 1.4-2.8 2.7-5.3 2.9-5.5 0.3-0.3 1 0 4.2 1.6 2.1 1 3.9 2 4 2.1 0.3 0.3-0.2 1.8-2.1 5.7-0.7 1.6-2 4.3-2.8 6.1-0.8 1.8-1.5 3.2-1.7 3.3-0.1 0-1.4-0.7-2.8-1.5zm158.1-0.6c-4.3-4-10.7-10-10.7-10.1 0-0.4 12.5-6.4 12.7-6.2 0.1 0.1 1 2.4 2 5 1 2.6 2.1 5.4 2.4 6.1l0.7 1.3-1 0.9c-2.7 2.4-4.6 4-4.8 4-0.1 0-0.7-0.4-1.3-1zm-168.2-5.3c-1.6-1-5.4-3.2-8.6-5l-1.5-0.8v-5.1c0-4.8 0.1-5.3 0.6-6.5 0.4-0.7 0.9-1.7 1.3-2.1l0.6-0.9 2.1 0.9c3.8 1.7 13.9 6.3 14.3 6.6 0.1 0.1-3 6.5-4.7 9.8-0.6 1.3-1.4 2.8-1.6 3.3-0.2 0.4-0.5 0.8-0.7 0.8-0.1 0-1-0.4-1.8-1zm101.9-1c-0.5-0.7-1.3-1.8-1.8-2.3-1-1-1-1-2.7-0.9-0.9 0.1-3.2 0.2-5.1 0.3-1.9 0.1-5.4 0.3-7.9 0.4-2.4 0.2-4.5 0.2-4.7 0.1-0.1 0-0.2-0.5-0.2-1 0-0.5-0.3-2.7-0.6-4.8-0.2-2.2-0.5-4.5-0.5-5.1v-1.2l1.5 0.2c0.9 0.1 3.4 0.3 5.6 0.5l4 0.3 3.9-1.6c4.9-1.9 7.5-2.7 8.1-2.7q0.5 0 0.9 1c0.2 0.5 1.7 3.7 3.3 7 1.6 3.4 3.1 6.5 3.3 7l0.4 0.8-3.2 1.6c-1.7 0.9-3.2 1.6-3.3 1.6-0.1 0-0.5-0.5-1-1.2zm74.4-1.1c-0.5-1.1-1.1-2.8-1.5-3.8-0.3-0.9-0.9-2.6-1.4-3.6-0.4-1.1-0.8-2.1-0.8-2.3 0-0.1 0.9-0.6 2.1-1 1.1-0.4 3.5-1.4 5.4-2.1 1.9-0.7 3.5-1.3 3.6-1.3 0.5 0 0.6 1 0.7 5.4l0.2 4.4-1.7 1.6c-2.4 2.1-5.4 4.8-5.6 4.8-0.1 0-0.5-1-1-2.1zm-36.5-0.6c-1.4-2.2-1.5-2.4-3.7-5.8-0.9-1.5-1.5-2.8-1.4-2.9 0.4-0.4 6.5-4 6.7-4 0.3 0 7.1 6.1 9.4 8.4l1.5 1.6-0.7 0.3c-0.9 0.4-1.8 0.7-6.9 2.8-2 0.8-3.7 1.5-3.7 1.5 0 0-0.6-0.9-1.2-1.9zm-29.2-3.8c-0.5-1-1.3-2.8-1.9-3.9-2.1-4.2-4.3-9.3-4.2-9.5 0.1-0.1 1.4-0.6 3-1.2 1.5-0.5 3.8-1.3 5-1.7 2.2-0.8 2.4-0.9 6.1-0.9h3.9l2.8 5.2c1.5 2.8 2.7 5.2 2.6 5.3-0.2 0.2-13.3 7.4-14.9 8.2-0.5 0.2-1.1 0.5-1.2 0.5-0.2 0-0.7-0.9-1.2-2zm41.6-3c-7.8-7.2-8.1-7.5-7.6-7.8 0.3-0.2 1.6-1.1 3-1.9 1.4-0.9 3.6-2.3 4.8-3l2.3-1.5 5.2 0.1c5 0 5.2 0.1 5.6 0.6 0.3 0.3 0.5 0.9 0.6 1.3 0.1 0.3 0.9 2.3 1.6 4.3 0.8 2 1.4 3.8 1.4 4-0.1 0.1-0.6 0.4-1.2 0.6-1 0.4-1.5 0.7-5.5 2.6-4 2-6.7 3.3-7 3.3-0.2-0.1-1.6-1.2-3.2-2.6zm-131.9-3.1c-1.6-1.1-10.2-5.2-18.9-8.9-2.2-0.9-3.9-1.7-3.9-1.9 0-0.1 0.4-0.2 0.9-0.2 3.5-0.1 26.4 0 26.5 0.1 0 0.1-0.2 1-0.5 2.1-0.4 1-1.2 3.5-1.8 5.5-0.6 2-1.3 3.7-1.4 3.7-0.2 0-0.6-0.2-0.9-0.4zm35.3-0.3c0 0-2.1-0.4-4.6-0.8-11.2-1.6-16.6-2.5-19.8-3.1-1.8-0.4-3.6-0.7-3.9-0.7-0.2 0-0.5-0.1-0.6-0.3-0.1-0.1 0.2-1.5 0.7-3l0.8-2.8h6.9c12.4 0 18 0 21.5 0h3.5l-0.6 2.6c-0.4 1.4-0.9 3.8-1.2 5.4l-0.6 2.9h-1c-0.5 0-1-0.1-1.1-0.2zm115.6-2.4c-0.3-0.6-0.9-2.1-1.4-3.4-0.5-1.3-1.1-2.9-1.4-3.6l-0.5-1.3h2.8c6-0.1 7.5 0.2 9.8 1.8 1.2 0.8 2.7 2.5 2.7 3.1 0 0.3-4.2 1.9-9.3 3.6-1.2 0.4-2.2 0.8-2.2 0.8 0 0-0.3-0.5-0.5-1zm-40.6-2.1c-0.5-1-1.5-2.8-2.2-3.9l-1.3-2.2h4.6c2.6-0.1 6.7-0.1 9.3 0h4.6l-1.2 0.7c-0.7 0.3-1.6 0.9-2.1 1.2-0.4 0.3-1.9 1.2-3.4 2-1.4 0.8-3.1 1.8-3.8 2.2-1.8 1-3.2 1.7-3.3 1.7-0.1 0-0.6-0.8-1.2-1.7zm-46 0.1c-1.7-0.1-3.9-0.3-4.7-0.4l-1.6-0.2-0.2-2.7c-0.2-1.5-0.2-2.8-0.1-2.9 0.2-0.2 29.8-0.3 29.8-0.1 0 0.1-1.2 0.5-2.6 0.9-3.1 0.9-7.7 2.5-11.6 4-3.1 1.2-4.8 1.7-5.4 1.7-0.2 0-1.8-0.2-3.6-0.3zm-11.6-0.9c-4.3-0.4-9.6-1-9.8-1.2-0.1-0.1 0-1.1 0.3-2.2 0.5-2.3 0.1-2.2 6.8-2.1 3.7 0 4.8 0.1 5 0.4 0.1 0.2 0.2 1.5 0.2 2.8v2.5l-0.7-0.1c-0.4 0-1.2-0.1-1.8-0.1z"/><path class="e" d="m132.3 131.8c-7.1-6.4-17.4-16.3-17.4-16.7 0-0.4 8.4-10.2 11.8-13.7l2.6-2.8 4.5 4.3 4.5 4.2 1.4-1.5c2.7-2.9 5.7-3.8 9.6-2.8 2.8 0.6 5.2 2.6 6.4 5.1 0.5 1 0.6 1.7 0.6 3.8 0 3-0.5 4.1-2.6 6.5-2.2 2.4-3.9 3.1-7.5 3.2-0.4 0-2 1.8-5.7 6.4-2.8 3.5-5.2 6.3-5.4 6.3-0.1 0-1.4-1-2.8-2.3zm-87.8-12.3c-0.8-0.3-1.8-0.6-2.3-0.9-1.4-0.7-3.3-2.7-4.2-4.4-0.7-1.5-0.8-1.9-0.8-4.1 0-2.4 0.1-2.7 1-4.4 1.1-2.2 2.8-3.9 4.9-4.9 1.3-0.6 1.9-0.7 3.9-0.7 2.1 0 2.6 0.1 4 0.8 2.1 1.1 3.8 2.9 4.9 5.1 0.7 1.6 0.9 2.1 0.9 4.1 0 2.1-0.1 2.4-0.9 4.1-0.7 1.4-1.4 2.1-2.7 3.2-0.9 0.8-2.2 1.6-2.9 1.8-1.7 0.6-4.1 0.7-5.8 0.3zm39.4-14.3c-2.5-0.8-4.2-2.4-5.5-4.9-0.9-1.8-1-2.2-1-4.2 0-1.9 0.2-2.6 0.7-3.8 1.3-2.6 4-5 6.5-5.8l1.1-0.3 0.2-1.8c0.4-4.3 2.4-9.5 4.8-12.9 1.8-2.6 4.8-5.4 7-6.7 1.1-0.6 2.4-1.4 2.9-1.7 1.4-0.9 5.4-2.2 8.2-2.6 1.8-0.4 3.7-0.5 6.5-0.4l4 0.1 0.1-0.8c1.5-9.8 7.1-16.3 16.8-19.1 2.1-0.6 6.5-0.7 9-0.3 6.1 1.2 10.8 4.3 14.2 9.3 2.8 4.3 3.7 6.9 3.7 12 0 3.9-0.5 6-2 9-2.8 5.6-6.7 9.4-11.7 11.6-1.6 0.7-6.3 1.4-8.9 1.4-4.3 0-9.4-1.9-12.9-4.7-3.5-2.9-6.7-8.1-7.6-12.2-0.4-1.6-0.6-2.1-1-2.2-1.2-0.3-8.4-0.2-10.4 0.2-2.8 0.6-6.3 1.9-8 2.9-2.2 1.4-5.8 5-7.5 7.8-1.7 2.7-3 6.5-3.3 9.6l-0.1 1.7 1.4 0.6c1.9 0.8 4.2 3.1 5.2 5.3 0.6 1.2 0.7 1.9 0.7 3.6 0 1.9-0.1 2.3-0.9 4-1.1 2.2-2.9 4.1-4.8 5-2 1.1-4.9 1.2-7.4 0.3zm61.3-37.6c0.8-0.8 0.9-1 0.9-2.4 0-0.8 0.1-1.4 0.3-1.4 0.1 0 1 0.6 1.9 1.4 2 1.7 3.5 2.6 3.9 2.4 0.3-0.2 0.3-11.9 0-12.2-0.4-0.2-2.7 1.1-4.2 2.4-0.7 0.7-1.4 1.2-1.6 1.2-0.1 0-0.3-0.5-0.4-1.2-0.1-0.9-0.3-1.5-0.9-2.1l-0.9-0.8-5.9-0.1-6-0.1-0.8 0.8-0.8 0.8v5.4c0 5.1 0.1 5.5 0.6 6.1l0.5 0.7h6.3 6.2zm-124.2 22c-1.2-0.7-3-1.7-4.1-2.3-1-0.6-4.1-2.2-6.8-3.6-2.6-1.4-4.9-2.7-5-2.9-0.1-0.4 4.1-9.9 4.7-10.7 0.5-0.5 0-0.8 10.2 5 2.8 1.6 6.2 3.6 7.7 4.4 1.4 0.8 2.8 1.5 3 1.7 0.3 0.2 0.3 0.3-0.2 1.1-1.6 2.3-6.7 8.5-7 8.4-0.2 0-1.3-0.5-2.5-1.1zm164.4-14.5c-5.4-8.4-6-9.5-5.9-9.8 0.1-0.3 7.5-4 13.3-6.5 2-0.9 2.6-1.1 2.8-0.8 0.3 0.4 0.3 16.9 0 17.4-0.2 0.3-7 2.9-7.7 2.9-0.2 0-1.3-1.4-2.5-3.2zm-138.3-0.1c-2.1-0.4-3.7-1.5-5.5-3.6-1.7-2-2.1-2.9-2.3-5.1-0.3-2.6 1.1-6.2 3.2-8.1 1.9-1.7 3.8-2.5 6.4-2.5 1.8 0 2.3 0.1 4.1 0.9 3.4 1.7 5.5 4.6 5.7 8.3 0.2 2.2-0.2 3.9-1.3 5.5-2.1 3-3.9 4.3-6.9 4.7-0.9 0.2-1.7 0.3-1.8 0.3 0 0-0.8-0.2-1.6-0.4zm5.4-38.2c-2.7-0.6-5.1-2.5-6.4-5.3-0.6-1.3-0.7-1.8-0.7-3.9 0-2.8 0.5-4.1 2.6-6.4 4.5-4.9 12.4-3.9 15.3 2 0.7 1.2 1.1 3.9 0.9 5.2-0.4 2.6-2.5 5.9-4.7 7.2-1.9 1.1-5 1.6-7 1.2z"/><path class="f" d="m133.5 132.5c-6-5.4-18.4-17.3-18.4-17.5 0-0.1 1.6-1.9 3.4-4.1 1.9-2.1 3.8-4.3 4.3-4.9 0.5-0.6 1.8-2 2.8-3.1 1.1-1.1 2.2-2.3 2.6-2.8 0.4-0.5 0.9-0.9 1-0.9 0.4 0 1.4 1 6 5.4l3 2.9 1.5-1.6c2.2-2.4 3.9-3.1 7.2-3.1 2.2 0 2.7 0.1 4.1 0.8 1.9 0.9 3.5 2.5 4.4 4.2 0.9 1.9 0.9 5.7 0 7.6-0.6 1.4-2.6 3.7-3.9 4.5-1.2 0.7-3.4 1.3-4.9 1.3-1.2 0-1.3 0-2.4 1.5-1.1 1.4-6.6 8.3-8.4 10.4l-0.7 0.9zm-89.6-13.5c-2.5-0.8-4.4-2.4-5.7-4.9-0.7-1.2-0.8-1.6-0.8-4 0-2.3 0.1-2.8 0.8-4.3 0.9-1.9 2.6-3.6 4.7-4.7 1.3-0.7 1.7-0.7 3.9-0.8 2.2 0 2.7 0.1 4.1 0.8 2 0.9 3.7 2.7 4.8 4.9 0.7 1.5 0.8 2 0.8 4 0 1.9-0.1 2.5-0.8 3.8-0.8 1.9-2.8 3.8-4.8 4.8-1.9 1-4.9 1.1-7 0.4zm40.4-13.9c-2.7-0.8-4.6-2.5-5.8-5.1-0.7-1.6-0.8-2-0.8-4 0-1.9 0.1-2.5 0.7-3.9 1.2-2.6 3.4-4.5 6.1-5.4l1.4-0.4 0.3-2.7c1.1-8.9 6.3-16.3 14.5-20.4 4.4-2.2 8.6-3 14.6-2.9l4 0.1 0.2-0.9c0.9-6.1 2.7-9.7 6.4-13.4 3.1-3 6.9-5.1 11-6 2.4-0.5 7.3-0.3 9.7 0.3 5.5 1.4 9.6 4.3 12.7 8.9 2.7 4.1 3.7 7.2 3.7 11.8 0 4.9-1.3 8.8-4.4 13.2-6 8.5-17.6 11.4-26.9 6.7-6-3-10.6-9.1-11.8-15.5-0.3-1.2-0.5-1.5-0.9-1.6-0.3-0.1-2.3-0.2-4.4-0.2-5.9 0-10.7 1.2-14.6 3.7-3.6 2.3-7.5 7.2-9 11.1-0.7 1.9-1.6 5.7-1.6 6.9 0 1 0.1 1 1.5 1.7 2.1 0.9 4.1 3 5 5 0.7 1.3 0.8 2 0.8 3.7 0 1.9-0.1 2.4-0.8 3.9-1.1 2.3-2.4 3.7-4.4 4.8-1.5 0.7-2 0.9-3.9 0.9-1.4 0.1-2.7 0-3.3-0.3zm60.9-37.5c0.8-0.8 0.9-1.1 0.9-2.4 0-1.8 0.3-1.9 1.4-0.7 1.2 1.2 4.3 3.3 4.6 3.1 0.2-0.2 0.3-2.2 0.3-6.2 0-5-0.1-5.9-0.4-6.1-0.4-0.1-3.6 1.9-4.6 3-0.9 0.9-1.3 0.8-1.3-0.2 0-1.1-0.7-2.4-1.6-2.9-0.7-0.4-1.6-0.5-6.5-0.5h-5.7l-0.8 0.7-0.8 0.7v5.4c0 5.3 0.1 6.2 0.9 6.8 0.2 0.1 3.1 0.2 6.5 0.2h6.2zm41.7 9.1c-0.9-1.3-3.8-5.8-6-9.2-0.7-1.1-1.2-2-1.2-2.1 0-0.1 1.9-1.1 4.4-2.3 2.4-1.1 4.9-2.3 5.5-2.6 1.6-0.9 5.4-2.4 5.6-2.3 0.2 0.2 0.3 13.7 0.1 15.5l-0.2 1.7-3.3 1.1c-1.8 0.7-3.5 1.2-3.7 1.3-0.3 0.1-0.6-0.2-1.2-1.1zm-141.2-2.4c-1.6-0.6-2.9-1.7-4.3-3.5-2.9-3.7-2.5-8.8 0.9-12.1 4.6-4.6 12.3-3.3 15.2 2.6 0.8 1.6 0.8 1.9 0.8 4.2 0 2.2-0.1 2.8-0.6 3.9-1 2-3.3 4.1-5.1 4.8-2 0.8-5.1 0.8-6.9 0.1zm6-38.1c-2.6-0.9-4.1-2.2-5.4-4.8-0.6-1-0.7-1.6-0.7-3.7 0-3 0.6-4.3 2.6-6.5 1.9-2 3.9-2.9 6.8-2.9 2.8 0 4.7 0.8 6.4 2.6 1.8 1.8 2.5 3.6 2.5 6.3 0 1.9-0.1 2.5-0.8 3.8-1.1 2.2-3.1 4.2-5 4.9-2.2 0.8-4.7 0.9-6.4 0.3z"/><path class="g" d="m142.5 120.1c-3.1-1.5-4.9-4.4-5.1-7.8-0.2-3 0.5-4.3 3.3-7.1 0.4-0.4 1.4-1.1 2.2-1.5 1.3-0.5 1.8-0.6 4-0.6 2.2 0 2.7 0 4 0.7 1.8 0.9 3.2 2.2 4.1 4 0.6 1.2 0.7 1.7 0.7 3.9 0 2.2 0 2.6-0.7 4-1.6 3.3-5 5.2-9 5.2-1.6 0-2.2-0.1-3.5-0.8zm-97.3-0.8c-3-0.5-5.7-2.6-7-5.5-0.6-1.2-0.7-1.9-0.7-3.6 0-3.7 1.3-6.3 4.3-8.3 1.8-1.2 4.5-1.8 6.5-1.5 3.1 0.5 6.4 3.1 7.5 6.1 0.9 2.3 0.8 5.3-0.2 7.4-1.8 3.9-6 6-10.4 5.4zm39.1-14.1c-2.7-0.9-4.5-2.5-5.8-5.1-0.7-1.6-0.8-2.1-0.8-4.1 0-1.9 0.1-2.4 0.8-3.9 1.2-2.6 3.6-4.6 6.5-5.5l1.2-0.3 0.2-2.2c0.5-7.2 5.1-14.8 11.2-18.8 5.3-3.5 9.7-4.7 17.3-4.8h4.5l0.1-0.9c1-6.1 2.7-9.7 6.4-13.4 3.1-3.1 6.9-5.1 11.1-6 2.4-0.5 7.2-0.4 9.6 0.2 5.5 1.5 9.6 4.4 12.7 9 2.7 4.1 3.7 7.1 3.7 11.8 0 4.9-1.3 8.8-4.4 13.2-5.9 8.4-17.6 11.3-26.9 6.7-5.4-2.7-10.2-8.6-11.4-14-0.7-3-0.8-3.2-1.5-3.4-1-0.3-7.1-0.2-9 0.1-2.4 0.4-6.5 1.7-8.3 2.6-4.8 2.6-9.3 8-11 13.1-0.7 2.2-1.4 6.4-1.1 6.8 0 0.1 0.7 0.5 1.5 0.8 2.1 1 4.2 3 5.1 5 0.6 1.4 0.7 2.1 0.7 3.8 0 1.8-0.1 2.4-0.8 3.9-1.1 2.3-2.3 3.6-4.4 4.7-1.4 0.8-1.9 0.9-3.9 1-1.3 0-2.6-0.1-3.3-0.3zm60.9-37.6c0.8-0.8 0.9-1 0.9-2.4 0-1.7 0.3-1.8 1.5-0.6 1.1 1.2 4.2 3.2 4.6 3 0.1-0.1 0.2-2.1 0.2-6.1 0-5 0-6-0.3-6.1-0.5-0.2-3.7 1.8-4.7 2.9-0.8 0.9-1.3 0.9-1.3-0.1 0-1.2-0.7-2.5-1.6-3-0.6-0.4-1.5-0.4-6.4-0.4h-5.7l-0.8 0.7-0.9 0.6v5.5c0 5.2 0.2 6.2 0.9 6.7 0.2 0.1 3.1 0.2 6.5 0.2h6.2zm-97.7 7c-4.7-0.9-8.1-5.3-7.7-10 0.3-3.4 2.3-6.2 5.5-7.7 2.1-1 5.3-1 7.4 0 1.9 0.9 3.8 2.8 4.7 4.7 0.6 1.3 0.7 1.8 0.7 4 0 3.1-0.6 4.4-2.6 6.5-2 2-5.2 3-8 2.5zm3.7-38.6c-4-1.6-6.4-6.4-5.3-10.5 0.8-2.7 2.7-4.9 5.2-6.2 1.3-0.6 1.8-0.6 4-0.6 3.1 0 4.5 0.5 6.4 2.5 1.6 1.7 2.3 3.6 2.3 6.1 0 2.6-1.1 5.1-3.1 6.9-2.5 2.2-6.4 2.9-9.5 1.8z"/><path class="h" d="m142.5 120.1c-3.1-1.5-4.9-4.4-5.1-7.8-0.2-3 0.5-4.3 3.3-7.1 0.4-0.4 1.4-1.1 2.2-1.5 1.3-0.5 1.8-0.6 4-0.6 2.2 0 2.7 0 4 0.7 1.8 0.9 3.2 2.2 4.1 4 0.6 1.2 0.7 1.7 0.7 3.9 0 2.2 0 2.6-0.7 4-1.6 3.3-5 5.2-9 5.2-1.6 0-2.2-0.1-3.5-0.8zm-99.1-1.3c-2.1-0.8-4-2.5-5.1-4.7-0.7-1.6-0.8-2-0.8-4 0-2 0.1-2.5 0.8-4 1.1-2.3 2.6-3.8 4.8-4.9 1.5-0.7 2.1-0.8 3.9-0.8 1.9 0 2.3 0.1 3.9 0.9 2.1 1 3.7 2.7 4.8 5 0.7 1.6 0.7 1.9 0.6 4.2 0 1.9-0.2 2.6-0.8 3.7-0.8 1.6-2.8 3.5-4.6 4.4-1.8 0.8-5.4 0.9-7.5 0.2zm40.9-13.9q-3.6-1.1-5.6-4.9c-0.6-1.3-0.7-1.7-0.7-3.8 0-2 0.1-2.6 0.6-3.9 1.3-2.7 3.6-4.7 6.1-5.3 1.5-0.3 1.5-0.3 1.7-3.3 0.6-6.9 5.2-14.5 11.2-18.4 2.5-1.6 4.2-2.5 6.9-3.4 3.1-1 5.6-1.3 10.8-1.4h4.4l0.4-2.2c0.7-4.6 2.6-8.4 5.7-11.6 4.6-4.6 10-6.7 16.6-6.4 3.6 0.2 5.4 0.6 8.6 2.2 8.4 4 13 13.2 11.4 22.5-0.6 3.1-1.5 5.4-3.3 8.1-1.6 2.5-2.8 3.8-4.8 5.4-3.9 3-8 4.3-13.3 4.3-3.4 0-5-0.3-7.9-1.5-5.9-2.4-11.1-8.4-12.5-14.5-0.6-2.7-0.7-2.9-1.7-3.1-1.2-0.2-7.2-0.2-9.1 0.1-2.4 0.4-6.5 1.7-8.3 2.6-4.8 2.6-9.3 8-11 13.1-0.7 2.3-1.3 6.3-1.1 6.9 0.1 0.2 0.9 0.7 1.8 1.2 2 0.9 3.6 2.6 4.6 4.7 0.6 1.3 0.7 1.9 0.7 3.7 0 2.1-0.1 2.5-0.9 4-1 2-2.7 3.7-4.5 4.5-1.5 0.8-5.1 1-6.8 0.4zm60.6-36.5c1-0.7 1.7-2.1 1.7-3.3v-0.9l0.9 0.8c1.6 1.4 4.1 3 4.6 2.9 0.4 0 0.5-0.6 0.5-6.3 0.1-5.6 0.1-6.3-0.3-6.5-0.6-0.2-1.8 0.4-3.9 2l-1.8 1.4-0.3-1.1c-0.1-0.6-0.7-1.5-1.1-2l-0.9-0.9h-6.1-6.2l-0.7 0.8-0.8 0.8v5.6c0 6.1 0.1 6.5 1.4 7.1 0.3 0.1 3.2 0.2 6.4 0.2 5.5-0.1 6-0.1 6.6-0.6zm-97.4 6.2c-4.7-0.9-8.1-5.3-7.7-10 0.3-3.4 2.3-6.2 5.5-7.7 2.1-1 5.3-1 7.4 0 1.9 0.9 3.8 2.8 4.7 4.7 0.6 1.3 0.7 1.8 0.7 4 0 3.1-0.6 4.4-2.6 6.5-2 2-5.2 3-8 2.5zm3.7-38.6c-4-1.6-6.4-6.4-5.3-10.5 0.8-2.7 2.7-4.9 5.2-6.1 1.3-0.7 1.8-0.7 4-0.7 3.1 0 4.5 0.5 6.4 2.5 1.6 1.7 2.3 3.6 2.3 6.1 0 2.6-1.1 5.1-3.1 6.9-2.5 2.2-6.4 2.9-9.5 1.8z"/><path class="i" d="m43.8 118.8q-2.8-0.9-4.5-3.2c-1.3-1.7-1.7-3.2-1.7-5.5 0-2.6 0.7-4.6 2.4-6.5 1.6-1.7 3.3-2.7 5.6-3.1 1.6-0.3 2-0.3 3.4 0.1 3.3 0.9 5.7 3.2 6.9 6.2 0.8 2.2 0.6 5.2-0.4 7.3-0.9 1.8-2.6 3.5-4.6 4.4-2 0.9-5.1 1.1-7.1 0.3zm40.5-13.9c-2.5-0.8-4.4-2.6-5.6-5.1-0.6-1.3-0.7-1.9-0.7-3.8 0-2 0.1-2.4 0.8-4 1.3-2.6 3.5-4.4 6.2-5.1l1.2-0.3 0.2-2.1c0.8-8.8 5.6-16.1 13.7-20.7 3.9-2.2 8.9-3.3 15.1-3.2 2.3 0 4.3 0 4.4-0.2 0.1-0.1 0.4-1.2 0.5-2.3 0.7-4.4 2.7-8.2 5.7-11.4 4.6-4.6 10-6.7 16.6-6.4 3.6 0.2 5.4 0.6 8.6 2.2 8.4 4 13 13.2 11.4 22.5-0.6 3.1-1.5 5.4-3.3 8.1-1.6 2.5-2.8 3.8-4.8 5.4-3.9 3-8 4.3-13.3 4.3-3.4 0-5-0.3-7.9-1.5-5.9-2.4-11.1-8.4-12.5-14.5-0.3-1.2-0.6-2.3-0.7-2.5-0.3-0.7-1.9-0.9-6.4-0.7-4.6 0.1-7.3 0.7-10.6 2.1-7.4 3.3-13.2 11.7-13.5 19.3l-0.1 1.6 1.8 0.9c2 1 3.7 2.8 4.7 4.8 0.5 1.2 0.7 1.9 0.7 3.6 0 1.9-0.1 2.3-0.9 3.9-1 2.1-2.6 3.7-4.5 4.7-1.8 0.8-5 1-6.8 0.4zm60.6-36.5c1-0.7 1.7-2.1 1.7-3.3v-0.9l0.9 0.8c1.6 1.4 4.1 3 4.6 2.9 0.4 0 0.5-0.6 0.5-6.3 0.1-5.6 0.1-6.3-0.3-6.5-0.6-0.2-1.8 0.4-3.9 2l-1.8 1.4-0.3-1.1c-0.1-0.6-0.7-1.5-1.1-2l-0.9-0.9h-6.1-6.2l-0.7 0.8-0.8 0.8v5.6c0 6.1 0.1 6.5 1.4 7.1 0.3 0.1 3.2 0.2 6.4 0.2 5.5-0.1 6-0.1 6.6-0.6zm-92.7-32.2c-1.7-0.5-3-1.3-4.3-2.8-3-3.5-2.7-9.1 0.8-12.3 1.9-1.7 3.7-2.4 6.4-2.4 1.9 0 2.4 0.1 3.7 0.7 0.8 0.4 2 1.3 2.6 1.9 4.3 4.7 2.5 12.1-3.6 14.5-1.5 0.6-4.2 0.8-5.6 0.4z"/><path class="j" d="m45.5 119c-3-0.3-5.7-2.3-7-5.2-0.9-1.9-1-5-0.2-7.2 0.7-2 2.8-4.2 4.9-5.2 2.3-1 5.2-1.1 7.4 0 2 0.9 3.4 2.3 4.5 4.2 0.9 1.6 0.9 1.8 0.9 4.5 0 2.4-0.1 2.9-0.6 3.9-2 3.6-5.6 5.5-9.9 5zm38.8-14.1c-2.5-0.8-4.4-2.6-5.6-5.1-0.6-1.3-0.7-1.9-0.7-3.8 0-2 0.1-2.4 0.8-4 1.4-2.7 3.6-4.5 6.7-5.2 0.8-0.2 1.1-0.4 1-0.7-0.3-0.6 0.3-4.6 0.9-6.6 0.8-2.8 2.4-5.9 4.2-8.2 5.5-7.5 14.2-11.1 24.9-10.6 3.1 0.1 3.1 0.1 3.2-0.5 0.1-0.3 0.3-1.4 0.5-2.4 1.2-7.1 6.1-13.2 12.8-16 3-1.2 5.7-1.7 9.4-1.5 3.6 0.2 5.4 0.6 8.6 2.2 8.4 4 13 13.2 11.4 22.5-0.6 3.1-1.5 5.4-3.3 8.1-1.6 2.5-2.8 3.8-4.8 5.4-3.9 3-8 4.3-13.3 4.3-3.4 0-5-0.3-7.9-1.5-5.9-2.4-11.1-8.4-12.5-14.5-0.8-3.4-0.6-3.2-4-3.4-10.8-0.7-19.5 3.6-24.3 12-1.7 2.9-2.7 5.9-3.1 9.4l-0.2 1.9 1 0.3c2.3 0.7 4.7 2.9 5.9 5.5 0.4 1 0.6 1.8 0.6 3.4 0 1.9-0.1 2.3-0.9 3.9-1 2.1-2.6 3.7-4.5 4.7-1.8 0.8-5 1-6.8 0.4zm60.6-36.5c1-0.7 1.7-2.1 1.7-3.3v-0.9l0.9 0.8c1.6 1.4 4.1 3 4.6 2.9 0.4 0 0.5-0.6 0.5-6.3 0.1-5.6 0.1-6.3-0.3-6.5-0.6-0.2-1.8 0.4-3.9 2l-1.8 1.4-0.3-1.1c-0.1-0.6-0.7-1.5-1.1-2l-0.9-0.9h-6.1-6.2l-0.7 0.8-0.8 0.8v5.6c0 6.1 0.1 6.5 1.4 7.1 0.3 0.1 3.2 0.2 6.4 0.2 5.5-0.1 6-0.1 6.6-0.6z"/><path class="k" d="m45.5 119c-3-0.3-5.7-2.3-7.1-5.2-0.8-1.9-0.9-5-0.1-7.2 0.7-2 2.8-4.2 4.9-5.2 2.3-1 5.2-1.1 7.4 0 2 0.9 3.4 2.3 4.5 4.2 0.9 1.6 0.9 1.8 0.9 4.5 0 2.4-0.1 2.9-0.6 3.9-2 3.6-5.6 5.5-9.9 5zm41-32.9c-0.3-0.6 0.3-4.5 0.9-6.6 0.8-2.8 2.4-5.9 4.2-8.2 5.5-7.5 14.2-11.1 24.9-10.6l3.3 0.1 0.3-2.2c0.7-4.8 2.6-8.5 6-11.9 3.4-3.4 6.4-5.1 10.8-6 4.7-1 9.3-0.4 13.7 1.7 4 1.9 6.6 4.2 9.1 8.2 2 3.2 2.6 5.5 2.7 9.9 0.1 3.1 0.1 4-0.4 6-1.4 6-5.8 11.4-11.5 14.2-3 1.5-4.8 1.9-8.7 2-2.8 0.2-3.6 0.1-5.5-0.4-8.3-2.1-14.4-8.8-16.1-17.5l-0.3-1.4h-4.8c-5.3 0-7.7 0.4-11.3 1.9-7.2 2.9-12.6 9.3-14.2 17.1-0.2 1.1-0.4 2.5-0.4 3v1.1h-1.3c-0.9 0-1.3-0.1-1.4-0.4zm57.8-17.4c1.3-0.6 2.1-1.6 2.3-2.9 0-0.7 0.1-1.2 0.2-1.2 0 0 1.1 0.7 2.3 1.7 3.6 2.7 3.5 2.9 3.5-4.8 0.1-4.7 0-6.3-0.2-6.5-0.4-0.3-2.1 0.6-4.1 2.2l-1.6 1.2-0.3-1.1c-0.4-1.5-1.7-2.7-3.3-2.9-0.6-0.1-2.6-0.1-4.4 0-1.8 0-4.1 0.1-5 0.1-1.4 0-1.7 0.1-2.5 0.7l-0.8 0.8v5.8l-0.1 5.7 0.9 0.8 0.9 0.8h5.7c4.2 0 5.9-0.1 6.5-0.4z"/><path class="l" d="m45.5 119c-3-0.3-5.7-2.3-7.1-5.2-0.8-1.9-0.9-5-0.1-7.2 0.7-2 2.8-4.2 4.9-5.2 2.3-1 5.2-1.1 7.4 0 2 0.9 3.4 2.3 4.5 4.2 0.9 1.6 0.9 1.8 0.9 4.5 0 2.4-0.1 2.9-0.6 3.9-2 3.6-5.6 5.5-9.9 5zm41-32.9c-0.3-0.6 0.3-4.5 0.9-6.6 2.5-8.4 9-14.9 17.5-17.6 3.6-1.1 10-1.6 13.5-1.1l1.2 0.1v1.3 1.4l-2.9-0.2c-10.9-0.7-19.6 3.6-24.4 12-1.8 3-3.1 7.4-3.1 10v1.1h-1.3c-0.9 0-1.3-0.1-1.4-0.4z"/><path class="m" d="m44.1 118.7c-0.6-0.2-1.4-0.5-1.7-0.7-1.2-0.6-3-2.5-3.7-3.8-0.6-1.2-0.7-1.6-0.7-4.1 0-3.4 0.5-4.7 2.4-6.6 2.1-2 3.4-2.6 6.6-2.6 2.4 0 2.8 0.1 4 0.8 4.4 2.3 6.4 8 4.2 12.3-1.5 3.1-4.3 4.8-7.9 5-1.3 0-2.6-0.1-3.2-0.3z"/></svg>